<svg xmlns="http://www.w3.org/2000/svg" xmlns:xlink="http://www.w3.org/1999/xlink" width="200" height="340" viewBox="0 0 200 340"><defs><style>.a,.d{fill:none;}.b{clip-path:url(#a);}.c{fill:#7491d0;}.d{stroke:#7491d0;stroke-linecap:round;stroke-linejoin:round;}</style><clipPath id="a"><rect class="a" width="200" height="340" transform="translate(1720 5008)"/></clipPath></defs><g class="b" transform="translate(-1720 -5008)"><g transform="translate(1714.781 5047.584) rotate(-9)"><path class="c" d="M116.4,8.2C87.68,25.442,90.781,55.961,93.519,82.887c.2,2.014.407,4,.592,5.955,1.486,15.7-3.6,25.764-10.278,32.2q-.326-.8-.685-1.611c-7.614-17.125-36.7-29.8-57.678-29.733h-.1c-12.034.065-20.479,4.181-23.778,11.592-3.122,7.012-1.62,13.852,4.342,19.782,13.006,12.936,45.831,19.235,68.658,7.97a41.206,41.206,0,0,0,8.714-5.718c9.445,26.071-6.947,49.475-21.48,70.222-2.661,3.8-5.176,7.39-7.558,11.005-14.677,22.28-27.657,46.273-23.29,70.764,2.4,13.477,10.181,24.357,22.494,31.462,15.357,8.864,36.235,10.428,53.188,3.983,25.815-9.812,45.7-31.375,60.131-49.065l-1-.849c-14.331,17.561-34.055,38.961-59.578,48.663-16.606,6.312-37.052,4.783-52.088-3.9-8.345-4.817-18.91-14.025-21.857-30.547-4.283-24.023,8.566-47.734,23.088-69.777,2.371-3.6,4.88-7.182,7.536-10.975,14.817-21.154,31.543-45.032,21.469-71.937a34.531,34.531,0,0,0,8.833-13.253c2-5.261,3.017-12.071,2.226-20.418-.185-1.958-.388-3.949-.593-5.966-2.7-26.524-5.751-56.587,22.237-73.394C129.393,1.941,125.352,2.823,116.4,8.2ZM47.846,133.437c-16.557.056-32.987-5.355-41-13.326-3.859-3.839-7.7-10.126-4.068-18.278,3.074-6.9,11.095-10.74,22.585-10.8h.1c20.58-.069,49.072,12.276,56.488,28.955q.45,1.008.844,2.011a39.459,39.459,0,0,1-8.775,5.843C66.193,131.7,57,133.406,47.846,133.437Z" transform="translate(0 0)"/><path class="d" d="M11.761,15.812,0,17.737,21.869,0,16.252,26.29Z" transform="translate(115.28 -13.661) rotate(10)"/></g></g></svg>