<svg xmlns="http://www.w3.org/2000/svg" xmlns:xlink="http://www.w3.org/1999/xlink" width="210" height="267" viewBox="0 0 210 267"><defs><style>.a{fill:#fff;}.b{clip-path:url(#a);}.c,.d{fill:none;stroke:#7491d0;}.c{stroke-miterlimit:10;}.d{stroke-linecap:round;stroke-linejoin:round;}</style><clipPath id="a"><rect class="a" width="210" height="267" transform="translate(50 0)"/></clipPath></defs><g class="b" transform="translate(-50)"><path class="c" d="M113.142,257.113c-14.248-6.578-20.815-26.319-20.112-42.124s8.274-30.518,17.465-43.331c6.684-9.313,14.7-18.228,25.247-22.572s24.1-2.939,31.4,5.9c6.289,7.617,6.51,19.1,2.371,28.09s-11.959,15.779-20.416,20.821a86.841,86.841,0,0,1-42.234,12.18c-14.916.347-31.079-4.017-40.019-16.082-12.546-16.929-6.065-41.391,4.729-59.51,14.3-24.013,38-45,65.748-45.491,16-.286,34.03,9.327,35.718,25.4,1.632,15.55-12.266,28.16-25.945,35.488A142.583,142.583,0,0,1,44.715,168.037c-19.181-5.018-39.443-16.828-43.087-36.5-2.64-14.254,4.381-28.6,13.291-39.973C36.278,64.3,70.113,47.449,104.533,46.926c14.709-.224,32.376,4.892,36.159,19.249,2.753,10.448-3.406,21.266-11.047,28.841-17.878,17.729-43.876,24.618-68.906,25.812-20.473.975-43.953-3.076-54.981-20.52-6.926-10.957-7.229-25.3-2.905-37.543s12.8-22.6,22.4-31.263A132.292,132.292,0,0,1,88.139,0" transform="translate(102.534 283.348) rotate(-126)"/><path class="d" d="M11.761,15.812,0,17.737,21.869,0,16.252,26.29Z" transform="matrix(0.961, -0.276, 0.276, 0.961, 228.697, 29.136)"/></g></svg>