<svg xmlns="http://www.w3.org/2000/svg" width="525.7" height="492.001" viewBox="0 0 525.7 492.001"><defs><style>.a,.b,.e{fill:#0a0945;}.b,.c,.l{stroke:#0a0945;}.c{fill:none;stroke-linecap:round;stroke-linejoin:round;}.d,.e{opacity:0.3;}.f{fill:#98bfff;}.g,.l{fill:#fff;}.h,.i,.j,.k,.m{fill:#666;}.h{opacity:0.13;}.i{opacity:0.11;}.j{opacity:0.1;}.k{opacity:0.15;}.l,.p{stroke-miterlimit:10;}.l{stroke-width:2px;}.m{opacity:0.16;}.n{fill:#ffb2b1;opacity:0.38;}.o,.p{fill:#ef3230;}.p{stroke:#ef3230;}</style></defs><g transform="translate(-287.396 -205.585)"><g transform="matrix(-0.934, 0.358, -0.358, -0.934, 813.114, 550.226)"><path class="a" d="M209.7,369.167c-15.7-.043-30.674-3.311-43.46-9.618-41.014-20.228-36.585-56.029-32.676-87.615.292-2.363.581-4.695.845-6.985,2.122-18.413-5.142-30.223-14.678-37.771q-.466.944-.978,1.89c-10.874,20.089-52.414,34.96-82.372,34.879h-.149c-17.186-.077-29.246-4.905-33.958-13.6-4.458-8.225-2.314-16.25,6.2-23.206,18.574-15.175,65.453-22.565,98.053-9.35a61.377,61.377,0,0,1,12.444,6.707c13.488-30.583-9.921-58.038-30.676-82.376-3.8-4.459-7.392-8.669-10.793-12.91C56.543,103.078,38.006,74.933,44.242,46.2,47.675,30.393,58.783,17.631,76.367,9.3,98.3-1.1,128.115-2.938,152.327,4.623,189.194,16.134,217.586,41.429,238.2,62.18l-1.433,1c-20.467-20.6-48.635-45.7-85.086-57.086C127.969-1.316,98.769.478,77.3,10.658c-11.918,5.65-27.007,16.453-31.215,35.834-6.117,28.181,12.233,56,32.973,81.854,3.387,4.224,6.969,8.426,10.763,12.874,21.161,24.815,45.047,52.826,30.661,84.388a41.1,41.1,0,0,1,12.614,15.546c2.862,6.172,4.309,14.16,3.18,23.953-.265,2.3-.554,4.632-.847,7-3.85,31.115-8.213,66.381,31.758,86.1,17.617,8.687,39.514,11.474,61.662,7.851l.371,1.536A119.024,119.024,0,0,1,209.7,369.167ZM68.338,212.635c-23.646-.065-47.109,6.282-58.553,15.632-5.511,4.5-10.993,11.879-5.809,21.442,4.39,8.1,15.845,12.6,32.255,12.672h.147c29.391.081,70.081-14.4,80.672-33.967q.642-1.183,1.206-2.359a58.578,58.578,0,0,0-12.532-6.854C94.54,214.668,81.411,212.671,68.338,212.635Z" transform="translate(0.01 0)"/><path class="b" d="M2.515,0A2.517,2.517,0,1,1,0,2.517,2.517,2.517,0,0,1,2.515,0Z" transform="matrix(0.848, -0.53, 0.53, 0.848, 233.524, 61.902)"/><g transform="matrix(0.848, -0.53, 0.53, 0.848, 219.942, 76.905)"><path class="c" d="M0,14.265l3.637,3.494L12,12.974,16.194,0,3.364,5.372Z" transform="translate(2.036 0)"/><path class="c" d="M5.673,3.494,2.036,0,0,2.474,3.491,5.823Z" transform="translate(0 14.265)"/><line class="c" x1="8.342" y2="9.173" transform="translate(9.888 0)"/></g></g><g transform="translate(337.643 272.582)"><g transform="translate(310.963 251.837) rotate(172)"><g class="d" transform="translate(118.652 122.261)"><g transform="translate(0 0)"><path class="a" d="M51,1.35A183.944,183.944,0,0,1,.658,3.474C-.219,3.382-.219,2,.658,2.089A184.914,184.914,0,0,0,50.628.01c.877-.139,1.247,1.155.369,1.339Z"/></g></g><g transform="translate(168.789 50.321)"><path class="e" d="M105.187,13.433q.567,5.811,1.137,11.606T107.463,36.6q.568,5.764,1.134,11.512t1.123,11.465q-4.616,1.644-9.571,3.158-4.912,1.493-10.136,2.8-5.177,1.291-10.644,2.349-5.415,1.04-11.095,1.8c-5.327.7-10.459,1.142-15.38,1.376-4.862.231-9.525.259-13.975.127-4.4-.131-8.6-.417-12.575-.818-3.939-.4-7.668-.906-11.172-1.486q-.817-5.2-1.639-10.4T11.886,48.06q-.825-5.22-1.652-10.45T8.583,27.126q4.383-.346,8.888-.761,4.54-.419,9.208-.911,4.7-.5,9.541-1.066,4.877-.575,9.89-1.227,7.215-.949,14.452-2.021,7.324-1.084,14.667-2.292,7.431-1.222,14.877-2.568Q97.641,14.92,105.187,13.433Z"/><g class="d" transform="translate(48.798 12.526)"><path class="a" d="M53.212,8.4q-6.481,2.073-12.927,3.7-6.377,1.614-12.713,2.8Q21.3,16.069,15.081,16.828q-6.157.751-12.262,1.1a.36.36,0,0,1-.323-.157.823.823,0,0,1-.15-.395.787.787,0,0,1,.05-.413.333.333,0,0,1,.278-.211q6.071-.358,12.2-1.111,6.191-.762,12.433-1.935,6.305-1.187,12.652-2.8,6.412-1.633,12.856-3.713a.41.41,0,0,1,.393.085.823.823,0,0,1,.246.379.8.8,0,0,1,.025.448.4.4,0,0,1-.27.291Z"/></g><g class="d" transform="translate(76.174 24.761)"><path class="a" d="M26.018,4.712q-2.934,1.247-5.9,2.282-2.947,1.03-5.92,1.854-2.958.82-5.937,1.439T2.318,11.325a.356.356,0,0,1-.34-.141.788.788,0,0,1-.155-.4.827.827,0,0,1,.056-.432.385.385,0,0,1,.295-.238Q5.122,9.69,8.057,9.07t5.878-1.443q2.942-.825,5.86-1.85t5.829-2.266a.368.368,0,0,1,.387.041.737.737,0,0,1,.244.364.862.862,0,0,1,.027.462.471.471,0,0,1-.264.334Z"/></g><g class="d" transform="translate(20.738 52.24)"><path class="a" d="M61.167,9.51c-5.139.952-10.234,1.889-15.293,2.7-5,.8-9.957,1.471-14.894,1.91a126.191,126.191,0,0,1-14.568.507A91.812,91.812,0,0,1,2.1,13.156a.477.477,0,0,1-.307-.224.961.961,0,0,1-.144-.4.636.636,0,0,1,.046-.367.23.23,0,0,1,.262-.125,91.6,91.6,0,0,0,14.268,1.454,125.338,125.338,0,0,0,14.506-.516c4.914-.441,9.854-1.117,14.828-1.919,5.037-.812,10.111-1.755,15.232-2.714a.428.428,0,0,1,.374.121.9.9,0,0,1,.235.38.752.752,0,0,1,.026.421.318.318,0,0,1-.255.243Z"/></g><g class="d" transform="translate(12.544 28.912)"><path class="a" d="M14.243,3.006q.076,1.937.281,3.868t.536,3.85q.331,1.919.788,3.824t1.036,3.791a.77.77,0,0,1,.043.266.57.57,0,0,1-.048.22.429.429,0,0,1-.116.156.333.333,0,0,1-.161.074l-1.688.189-1.676.188-1.669.187L9.9,19.805a8.363,8.363,0,0,0-.885.187,7.3,7.3,0,0,1-1.073.192A2.332,2.332,0,0,1,6.9,20.069a1.485,1.485,0,0,1-.792-.735,3.463,3.463,0,0,1-.256-.676c-.069-.249-.125-.517-.173-.788s-.088-.543-.126-.8-.075-.5-.115-.718q-.084-.5-.164-1.007t-.16-1.007q-.079-.5-.16-1.007t-.165-1.008c-.124-.765-.253-1.528-.394-2.288s-.291-1.518-.46-2.271-.354-1.5-.564-2.25S2.934,4.025,2.67,3.289a.735.735,0,0,1-.042-.258.712.712,0,0,1,.043-.238.412.412,0,0,1,.11-.169.2.2,0,0,1,.16-.051q1.283.121,2.552.13t2.529-.1q1.26-.1,2.507-.322t2.484-.552a.346.346,0,0,1,.219.012.448.448,0,0,1,.18.138.717.717,0,0,1,.122.231.955.955,0,0,1,.045.293c0,.114,0,.2,0,.27a1.28,1.28,0,0,1-.014.177,1.09,1.09,0,0,1-.04.163c-.019.061-.045.132-.08.228a.358.358,0,0,1-.241.256.372.372,0,0,1-.3-.078.651.651,0,0,1-.22-.737l.022-.143.022-.143.022-.143.022-.143.141.169.141.169.141.169.141.169q-1.264.346-2.538.571t-2.556.331q-1.282.106-2.579.1T3.055,3.658c.025-.057.05-.115.074-.176s.048-.121.071-.183.045-.123.066-.183.041-.119.06-.175A34.738,34.738,0,0,1,4.348,6.306c.285,1.132.523,2.272.735,3.416s.4,2.294.583,3.444.364,2.3.564,3.448c.02.1.043.257.069.434s.055.378.087.574.066.387.1.546a1.319,1.319,0,0,0,.117.35.787.787,0,0,0,.31.289.873.873,0,0,0,.36.087,1.92,1.92,0,0,0,.36-.025c.115-.017.221-.037.312-.046l.7-.081.7-.081.705-.081.714-.081,1.405-.162,1.415-.163L15,18.01l1.421-.164c-.026.057-.052.115-.077.176s-.05.121-.074.183-.047.122-.069.183-.043.119-.062.175q-.593-1.913-1.062-3.851t-.811-3.894q-.341-1.956-.55-3.927t-.281-3.949a.5.5,0,0,1,.109-.364.343.343,0,0,1,.27-.117A.4.4,0,0,1,14.1,2.6a.651.651,0,0,1,.147.405Z"/></g></g><g transform="translate(-7.575 -0.662)"><path class="e" d="M99.557,41.039q-1.14,5.547-2.283,11.124t-2.3,11.209Q93.825,69,92.665,74.665T90.331,86.039c-2.224.033-4.55-.008-6.975-.142-2.45-.135-5-.366-7.654-.71-2.681-.349-5.465-.814-8.348-1.418-2.918-.611-5.939-1.362-9.06-2.277a132.085,132.085,0,0,1-13.2-4.681C40.74,75.006,36.51,73,32.42,70.844c-4.156-2.19-8.162-4.529-12-6.959-3.9-2.467-7.625-5.024-11.162-7.61q1.352-6.917,2.691-13.8,1.337-6.863,2.665-13.692,1.325-6.813,2.646-13.595,1.318-6.766,2.634-13.5,4.641,2.668,9.253,5.236Q33.7,9.461,38.229,11.9q4.474,2.413,8.915,4.731,4.389,2.291,8.745,4.49,6.121,3.077,11.956,5.87,5.744,2.75,11.225,5.24,5.4,2.453,10.553,4.666Q94.7,39.08,99.557,41.039Z"/><g class="d" transform="translate(55.813 28.386)"><path class="a" d="M39.941,18.159q-4.494-.863-9.064-2.177-4.629-1.333-9.329-3.136Q16.786,11.017,11.956,8.7,7.061,6.346,2.1,3.484A.464.464,0,0,1,1.9,3.145a1.3,1.3,0,0,1,.01-.5.934.934,0,0,1,.177-.408.224.224,0,0,1,.293-.073q4.926,2.86,9.8,5.216,4.8,2.325,9.542,4.161Q26.39,13.356,31,14.694q4.546,1.321,9.018,2.181c.1.021.171.117.215.248a1.278,1.278,0,0,1,.05.457,1.1,1.1,0,0,1-.1.425c-.057.11-.137.175-.238.154Z"/></g><g class="d" transform="translate(75.518 47.907)"><path class="a" d="M18.117,6.687q-2.132-.034-4.273-.283T9.528,5.686q-2.175-.47-4.355-1.158T.781,2.923a.371.371,0,0,1-.2-.293,1.232,1.232,0,0,1,.009-.469A1.007,1.007,0,0,1,.76,1.754a.231.231,0,0,1,.276-.1q2.172.9,4.345,1.589t4.312,1.15q2.14.465,4.272.718t4.226.292c.105,0,.18.078.225.2a1.118,1.118,0,0,1,.054.442,1.2,1.2,0,0,1-.1.444c-.06.121-.143.2-.249.2Z"/></g><g class="d" transform="translate(15.273 48.958)"><path class="a" d="M55.809,29.368c-4.056-.981-8.2-1.989-12.391-3.152-4.268-1.183-8.595-2.527-12.949-4.165A106.629,106.629,0,0,1,17.125,16,95.466,95.466,0,0,1,3.581,7.1a.681.681,0,0,1-.224-.432,1.5,1.5,0,0,1,.016-.56.855.855,0,0,1,.2-.42.223.223,0,0,1,.321-.013,95.632,95.632,0,0,0,13.482,8.913,106.236,106.236,0,0,0,13.278,6.073c4.333,1.645,8.639,3,12.888,4.187,4.178,1.17,8.3,2.185,12.346,3.171a.367.367,0,0,1,.233.268,1.321,1.321,0,0,1,.055.482,1.1,1.1,0,0,1-.108.444c-.062.114-.148.179-.257.154Z"/></g><g class="d" transform="translate(18.94 10.839)"><path class="a" d="M16.966,8.369q-.661,2.23-1.2,4.541t-.958,4.7q-.418,2.384-.713,4.829t-.467,4.942a1.135,1.135,0,0,1-.061.331.677.677,0,0,1-.13.226.386.386,0,0,1-.17.114.277.277,0,0,1-.182,0l-1.69-.731-1.7-.733-1.707-.738L6.269,25.1a8.1,8.1,0,0,0-.958-.3,7.259,7.259,0,0,1-1.155-.4,2.8,2.8,0,0,1-1.007-.75,2.371,2.371,0,0,1-.507-1.342,5.5,5.5,0,0,1,.015-.955c.031-.337.083-.688.144-1.038s.131-.7.2-1.025.129-.641.175-.919q.119-.646.242-1.29t.246-1.286q.124-.642.246-1.285t.241-1.287c.183-.977.361-1.953.527-2.932s.318-1.961.452-2.949.249-1.983.338-2.988.153-2.02.184-3.049A1.06,1.06,0,0,1,5.711.975.8.8,0,0,1,5.85.727.359.359,0,0,1,6.029.6a.194.194,0,0,1,.18.047q1.233.988,2.483,1.827T11.2,4.005q1.259.688,2.535,1.23a26.461,26.461,0,0,0,2.56.937.4.4,0,0,1,.2.151.734.734,0,0,1,.116.267,1.192,1.192,0,0,1,.027.336,1.375,1.375,0,0,1-.069.358c-.042.129-.074.226-.1.3a1.571,1.571,0,0,1-.08.191,1.175,1.175,0,0,1-.1.159c-.041.057-.093.121-.161.208-.108.139-.221.174-.323.14a.489.489,0,0,1-.256-.275,1.085,1.085,0,0,1-.093-.484.836.836,0,0,1,.165-.485L15.7,6.9l.075-.148.075-.148.075-.147.069.278.069.278.069.278.069.278a26.266,26.266,0,0,1-2.62-.938q-1.3-.545-2.588-1.241T8.428,3.841q-1.277-.852-2.54-1.855c.048-.049.1-.1.145-.155s.1-.109.144-.165.094-.112.139-.168.089-.111.13-.164c-.042,1.551-.158,3.071-.326,4.571s-.387,2.981-.634,4.451-.521,2.934-.8,4.4-.561,2.929-.823,4.4c-.022.133-.061.329-.106.554s-.1.479-.144.73-.09.5-.117.707a2.074,2.074,0,0,0-.024.484,1.268,1.268,0,0,0,.2.527A1.139,1.139,0,0,0,4,22.476a2.058,2.058,0,0,0,.374.184c.122.048.238.087.332.13l.73.316.73.316.733.318.738.322,1.445.625,1.441.625,1.433.621,1.421.615c-.047.05-.094.1-.141.158s-.094.112-.14.169-.092.115-.136.172-.086.113-.127.167q.17-2.54.466-5.037t.721-4.934q.425-2.436.978-4.8T16.234,7.8a.515.515,0,0,1,.24-.343.287.287,0,0,1,.3.036.589.589,0,0,1,.212.332,1.03,1.03,0,0,1-.016.547Z"/></g></g></g><g transform="translate(0 0)"><g transform="translate(133.624 175.332)"><path class="f" d="M12.7.014c-1.478.092-2.54.831-4.618,2.309A37.854,37.854,0,0,0,0,10.128a81.348,81.348,0,0,0,5.219,15.61A83.864,83.864,0,0,0,29.511,56.68a13.506,13.506,0,0,0,2.91-5.5,13.583,13.583,0,0,0-.6-7.8c-1.709-5.5-2.863-11.176-4.341-16.764C24.385,15.023,25.955,13.73,22.861,8.373,21.891,6.757,17.734-.356,12.7.014Z" transform="translate(0.631 144.908)"/><path class="g" d="M34.175,14.178a103.79,103.79,0,0,1,5.5,13.3A101.78,101.78,0,0,1,44.89,55.835a100.058,100.058,0,0,1-5.219,34.406c-6.189,18.427-16.072,30.3-22.583,37.87A136.645,136.645,0,0,1,0,144.876a10.086,10.086,0,0,0,1.432,5.219c3,4.711,9.144,4.618,9.56,4.618A133.774,133.774,0,0,0,24.292,144,134.116,134.116,0,0,0,40.5,126.357,112.57,112.57,0,0,0,56.389,98.878a110.309,110.309,0,0,0,7.8-37.039c.369-9.929-.739-16.949-2.309-26.879-2.54-16.3-5.773-22.907-8.082-26.879A55.205,55.205,0,0,0,48.03,0Q41.1,7.066,34.175,14.178Z" transform="translate(12.407 0)"/><path class="f" d="M34.546,1.038a93.107,93.107,0,0,1,9.375,58.1c-3,18.011-11.453,34.73-22.722,48.954A148.036,148.036,0,0,1,.232,129.473c-.693.554.323,1.57.97.97,14.132-11.915,26.463-26.232,34.776-42.765A96.463,96.463,0,0,0,45.723,31.75,94.145,94.145,0,0,0,35.793.345a.714.714,0,0,0-1.247.693Z" transform="translate(11.621 15.034)"/><path class="f" d="M40.187,1.038A113.689,113.689,0,0,1,52.748,65.094a113.377,113.377,0,0,1-25.493,61.192A169.927,169.927,0,0,1,.238,152.38c-.693.554.277,1.524.97.97,17.919-14.086,33.945-31.358,43.458-52.279,9.19-20.182,11.915-43.089,8.59-64.933A112.326,112.326,0,0,0,41.387.345c-.416-.785-1.616-.092-1.2.693Z" transform="translate(22.653 2.287)"/><path class="f" d="M0,.658c.785,6.235,5.911,12.977,12.885,10.3.831-.323.462-1.663-.369-1.339C6.424,11.973,2.083,6.062,1.39.658,1.3-.219-.088-.219,0,.658Z" transform="translate(11.479 144.218)"/><path class="f" d="M11.068.086A30.588,30.588,0,0,0,.123,9.738c-.508.739.693,1.432,1.2.693A29.217,29.217,0,0,1,11.761,1.287c.785-.416.092-1.616-.693-1.2Z" transform="translate(0 144.651)"/><path class="f" d="M.027.871A82.566,82.566,0,0,0,29.168,46.962c.693.554,1.663-.416.97-.97A81.386,81.386,0,0,1,1.366.5.7.7,0,0,0,.027.871Z" transform="translate(0.235 154.766)"/><path class="f" d="M.027.871c2.032,7.666,4.11,15.287,6.142,22.953,1.894,6.974,5.819,16.441.369,22.768-.6.693.416,1.663.97.97,5.08-5.911,2.771-13.855.97-20.6C6.123,18.144,3.721,9.323,1.366.5A.7.7,0,0,0,.027.871Z" transform="translate(23.141 154.488)"/><path class="f" d="M1.3,10.775A19.252,19.252,0,0,1,18.577,1.4c.877.046.877-1.339,0-1.385A20.631,20.631,0,0,0,.1,10.082c-.462.739.739,1.432,1.2.693Z" transform="translate(50.589 14.949)"/><path class="f" d="M1.135,7.907a18.383,18.383,0,0,1,11.5-6.558c.877-.139.508-1.478-.369-1.339A19.288,19.288,0,0,0,.165,6.937c-.554.693.416,1.663.97.97Z" transform="translate(55.931 37.768)"/><path class="f" d="M1.229,5.833A18.952,18.952,0,0,1,14.252,1.4c.877.046.877-1.339,0-1.385A20.52,20.52,0,0,0,.213,4.863c-.647.554.323,1.524,1.016.97Z" transform="translate(58.055 25.895)"/><path class="f" d="M1.135,3.778c1.94-2.448,5.4-2.4,8.267-2.309,3.464.139,7.759,1.339,8.267,5.4.092.877,1.478.877,1.385,0-.508-3.972-3.926-6.1-7.62-6.6C7.832-.24,2.659-.333.165,2.854c-.554.647.416,1.663.97.924Z" transform="translate(56.439 68.129)"/><path class="f" d="M0,.658C.324,6.015,2.957,12.989,9.1,13.682c.877.092.877-1.293,0-1.385C3.834,11.7,1.664,5.184,1.387.658,1.34-.219-.045-.219,0,.658Z" transform="translate(20.488 136.875)"/><path class="f" d="M.017.871A16.109,16.109,0,0,0,6.483,10.8c.739.508,1.432-.693.693-1.2A14.892,14.892,0,0,1,1.357.5C1.172-.376-.167-.006.017.871Z" transform="translate(29.709 127.194)"/><path class="f" d="M.165,1.248C2.336,4.019,4.784,6.836,8.386,7.529c.877.185,1.247-1.155.369-1.339C5.384,5.543,3.167,2.818,1.135.232.581-.461-.389.555.165,1.248Z" transform="translate(37.412 126.356)"/><path class="f" d="M.658,1.362A22.352,22.352,0,0,1,16.684,7.227c.647.6,1.663-.369.97-.97A23.56,23.56,0,0,0,.658.023c-.877,0-.877,1.385,0,1.339Z" transform="translate(47.403 99.686)"/><path class="f" d="M.658,1.44a13.131,13.131,0,0,1,9.514,2.771c.693.554,1.663-.416.97-.97A14.582,14.582,0,0,0,.658.055C-.219.1-.219,1.487.658,1.44Z" transform="translate(56.27 86.908)"/><path class="h" d="M48.03,0a169.276,169.276,0,0,1,6,24.662c1.709,10.391,3.972,23.83,1.663,39.994C53.434,80.636,47.8,91.9,43.689,99.986A145.909,145.909,0,0,1,5.681,146.677L0,137.672a76.991,76.991,0,0,0,13.993-11.315c4.988-5.126,7.943-9.606,12.331-16.349,5.542-8.5,8.451-12.977,11.315-19.351a90.978,90.978,0,0,0,7.99-33.667c.416-11.638-1.709-20.6-4.018-30.342a167.555,167.555,0,0,0-4.988-17C40.5,6.466,44.29,3.233,48.03,0Z" transform="translate(11.622 6.974)"/><path class="h" d="M43.643,0a83.857,83.857,0,0,1,3.325,10.668,90.567,90.567,0,0,1,2.355,23.322c-.277,16.487-.554,31.682-6.65,47.661C32.282,108.761,10.484,124,0,130.328a289.772,289.772,0,0,0,18.981-22.353c8.96-11.592,13.393-17.411,17-24.662,12.377-24.939,9.1-49.554,7.99-56.343a92.437,92.437,0,0,0-7.02-23.322C39.209,2.448,41.426,1.2,43.643,0Z" transform="translate(12.361 16.349)"/></g><g transform="translate(111.111 197.659)"><path class="g" d="M5.222,3.12C3.282,5.337,3.374,7.877,2.635,17.575,1.573,31.615,1.157,28.705.6,38.127a410.773,410.773,0,0,0,.877,56.99,344.074,344.074,0,0,0,11.269,59.9c3.972,13.624,10.714,32.42,10.992,33.252,1.986,5.542,3.695,10.16,4.9,13.3.277.185,7.343,4.156,12.423.877a7.3,7.3,0,0,0,3.464-4.618,6.725,6.725,0,0,0-.877-4.618c-1.524-4.618-3.741-11.5-6.1-19.951-3.926-14.132-9.652-35.33-11.869-62.763-.831-10.484-.831-17.965-.877-30.666a399.138,399.138,0,0,1,1.755-43.089c.831-8.313,2.263-19.582,4.9-32.975C24.942,1.319,10.625-2.976,5.222,3.12Z" transform="translate(0.834 0)"/><path class="f" d="M0,7.066a25.694,25.694,0,0,1,1.709,7.343,25.388,25.388,0,0,1-.139,6.05,43.072,43.072,0,0,0,9.514,4.018c1.478.416,3.048.785,5.773,1.432,3.14.739,5.542,1.247,6.466,1.432,9.7,2.032,14.594,3.048,20.321,3.464a83.4,83.4,0,0,0,10.068.139c.831-1.339,2.494-4.434,1.432-7.343-.831-2.309-2.91-3.418-6.65-5.311-7.8-4.018-11.73-6-11.823-6.05C31.866,10.345,25.077,6.881,16.626,0a15.066,15.066,0,0,1-6.189,5.911A15.448,15.448,0,0,1,0,7.066Z" transform="translate(29.332 195.426)"/><path class="f" d="M3.007.641A359.23,359.23,0,0,0,14.876,149.258,363.945,363.945,0,0,0,29.239,188.79c.369.831,1.524.092,1.2-.693A358.193,358.193,0,0,1,1.391,42.39a360.319,360.319,0,0,1,3-41.749C4.485-.237,3.1-.19,3.007.641Z" transform="translate(0 13.563)"/><path class="f" d="M3.186.693c-4.9,45.86-4.849,92.782,5.126,137.995A305.991,305.991,0,0,0,19.119,176.05c.323.831,1.663.462,1.339-.369C4.71,132.268,0,85.669,1.708,39.717,2.17,26.694,3.186,13.67,4.571.693c.092-.924-1.293-.924-1.385,0Z" transform="translate(25.038 18.314)"/><path class="f" d="M.469,8.309A13.361,13.361,0,0,0,16.356,1.059c.369-.785-.831-1.524-1.2-.693A12.049,12.049,0,0,1,.838,6.97C.007,6.693-.363,8.032.469,8.309Z" transform="translate(29.417 194.321)"/><path class="f" d="M.027.871A39.363,39.363,0,0,1,1.5,12.463a.694.694,0,0,0,1.385,0A40.326,40.326,0,0,0,1.366.5.7.7,0,0,0,.027.871Z" transform="translate(28.936 201.621)"/><path class="f" d="M.238,1.135C6.7,6.215,15.617,7.093,23.422,8.756c9.375,1.986,18.981,4.711,28.633,4.11.877-.046.877-1.432,0-1.385-9.237.554-18.381-1.986-27.387-3.879C16.91,5.985,7.628,5.246,1.208.165c-.693-.554-1.663.416-.97.97Z" transform="translate(30.248 214.334)"/><path class="f" d="M.213,1.159c6.1,5.542,13.3,9.468,20.644,13.116,3.741,1.847,7.482,3.6,11.176,5.5a15.333,15.333,0,0,1,5.173,3.51c2.078,2.54.924,5.727-.231,8.451-.323.831.831,1.524,1.2.693,1.432-3.418,2.679-7.251-.139-10.3-2.863-3.187-7.8-4.8-11.592-6.65C17.578,11.18,8.572,6.839,1.183.189c-.647-.6-1.616.369-.97.97Z" transform="translate(45.467 194.544)"/><path class="f" d="M.345,1.287A33.905,33.905,0,0,0,25.469,3.735.7.7,0,0,0,25.1,2.4,32.269,32.269,0,0,1,1.038.086C.253-.329-.44.871.345,1.287Z" transform="translate(0.999 37.717)"/><path class="f" d="M.345,1.271A28.47,28.47,0,0,0,15.632,3.626c.877-.092.877-1.478,0-1.385A26.907,26.907,0,0,1,1.038.07C.253-.3-.44.9.345,1.271Z" transform="translate(0.445 51.912)"/><path class="f" d="M.316,2.459A17.352,17.352,0,0,0,12.231,5C16.48,4.537,21.7,3.568,25.347,1.3c.739-.462.046-1.663-.693-1.2C21.237,2.228,16.2,3.152,12.231,3.614A16.233,16.233,0,0,1,1.009,1.258C.27.75-.423,1.951.316,2.459Z" transform="translate(0.752 82.451)"/><path class="f" d="M.449,3.152A26.158,26.158,0,0,0,23.632,1.3.693.693,0,0,0,22.94.1,24.927,24.927,0,0,1,.818,1.813C-.013,1.489-.337,2.829.449,3.152Z" transform="translate(3.159 101.894)"/><path class="f" d="M.469,5.692C7.627,8.232,14.6,5,20.651,1.3c.739-.462.046-1.663-.693-1.2C14.185,3.614,7.627,6.754.838,4.353.007,4.076-.363,5.415.469,5.692Z" transform="translate(10.205 137.455)"/><path class="f" d="M8.953.213A16.869,16.869,0,0,1,.5,5.293.7.7,0,0,0,.871,6.632a18.047,18.047,0,0,0,9.1-5.4C10.523.536,9.554-.434,8.953.213Z" transform="translate(25.32 161.546)"/><path class="f" d="M.861,4.2a24.839,24.839,0,0,0,8.451-2.91A.693.693,0,0,0,8.62.089,23.027,23.027,0,0,1,.538,2.86C-.386,3-.016,4.338.861,4.2Z" transform="translate(21.959 180.374)"/><path class="i" d="M20.331,0A165.488,165.488,0,0,0,15.02,26.648c-1.847,15.979-.877,27.941.323,41.657,4.249,47.245,6.466,71.214,11.684,86.686a195.642,195.642,0,0,0,15.009,33.667c-.185.231-4.156,4.988-9.329,4.018a9.042,9.042,0,0,1-4.018-1.986,331.422,331.422,0,0,1-13.024-34.683C11.879,143.906.426,105.02.01,52a384.323,384.323,0,0,1,3-50.986C8.785.647,14.558.323,20.331,0Z" transform="translate(0.504 9.678)"/><path class="i" d="M2.815,0c.647,25.031,2.494,46.091,4.341,62.024,3.14,27.617,5.45,46.645,13.024,70.66a270.461,270.461,0,0,0,18.981,45.352c-3.325.554-6.65,1.108-10.022,1.663q-4.78-10.183-9.006-21.337C-1.9,100.032-2.588,43.966,2.815,0Z" transform="translate(0.7 21.685)"/></g><g transform="translate(205.811 87.352)"><path class="g" d="M1.644.5C.72,1.105-.435,2.675.166,8.171a38.345,38.345,0,0,0,4.387,13.9C16.792,43.5,13.928,41.053,17.715,45.856c4.526,5.681,10.9,13.716,22.168,18.658,4.849,2.124,11.407,5.034,18.658,3.094a36.448,36.448,0,0,0,10.992-5.126,39.55,39.55,0,0,1,7.158-4.757,36.459,36.459,0,0,1,4.942-2.032A8.519,8.519,0,0,0,85.281,56.8c2.4.139,3.14-.877,5.681-1.108A11.96,11.96,0,0,1,97.2,56.986c2.956,1.57,3.51,3.787,4.757,3.464,1.339-.323,1.8-3.14,1.847-4.572a8.56,8.56,0,0,0-1.293-4.572,11.729,11.729,0,0,0-4.018-4.2,8.174,8.174,0,0,0-2.032-3.648,8.495,8.495,0,0,0-4.2-2.4,5.578,5.578,0,0,0-1.293-2.725c-2.217-2.494-6.1-1.8-7.158-1.663a11.289,11.289,0,0,0-6.6,4.018,5.308,5.308,0,0,0-3.279-.739,5.627,5.627,0,0,0-3.648,2.4,7.718,7.718,0,0,0-1.293,5.865,21.124,21.124,0,0,0-6.789,1.847c-2.817,1.339-3.741,2.632-6.419,3.648a12.481,12.481,0,0,1-6.419.924,11.6,11.6,0,0,1-5.126-2.217A56.8,56.8,0,0,1,31.247,39.252c-13.9-20.921-12.516-18.011-13.9-20.69C12.82,9.926,9.679,1.105,4.553.089A4.2,4.2,0,0,0,1.644.5Z" transform="translate(0 0.84)"/><path class="f" d="M.07,1.068A187.553,187.553,0,0,0,22.746,38.661c7.666,9.883,17.873,22.4,32,19.72.877-.185.508-1.524-.369-1.339C39.926,59.767,29.35,45.265,21.868,35.2A187.034,187.034,0,0,1,1.317.375C.9-.456-.3.237.07,1.068Z" transform="translate(6.977 0)"/><path class="f" d="M.5,7.2a15.826,15.826,0,0,0,6.05.6,16.6,16.6,0,0,0,5.4-2.355A31.448,31.448,0,0,1,26.918,1.385a.694.694,0,0,0,0-1.385A33.384,33.384,0,0,0,14.772,2.494c-1.894.785-3.6,1.894-5.4,2.817C6.506,6.789,3.919,6.6.871,5.865A.7.7,0,0,0,.5,7.2Z" transform="translate(46.494 48.221)"/><path class="f" d="M.07,1.044c6.189,13.162,12.562,26.648,23,37.039,9.144,9.052,22.722,16.672,35.884,12.839a38.1,38.1,0,0,0,9.976-4.757c3.464-2.263,6.835-5.727,11.222-5.773a.694.694,0,0,0,0-1.385c-5.958.092-10.622,5.542-15.656,8.174a27.358,27.358,0,0,1-21.937,1.8C29.488,44.641,19.7,33.926,12.632,22.519A217.427,217.427,0,0,1,1.224.4C.9-.48-.3.259.07,1.044Z" transform="translate(1.712 17.389)"/><path class="f" d="M.658,1.387C4.815,1.571,10.865,3.7,9.664,9.053,9.479,9.93,10.818,10.3,11,9.422,12.435,3.1,5.784.232.658,0c-.877-.046-.877,1.339,0,1.385Z" transform="translate(72.523 47.804)"/><path class="f" d="M1.357,8.082A35.339,35.339,0,0,1,2.373,3.095C3.158.832,6.391,1.386,8.284,1.709c.877.139,1.247-1.2.369-1.339-1.94-.323-4.988-.877-6.6.647S.433,5.727.017,7.759c-.185.831,1.155,1.2,1.339.323Z" transform="translate(68.545 40.415)"/><path class="f" d="M1.025,8.241A85.285,85.285,0,0,0,8.137,3.253C9.846,1.96,11.6,1.037,13.817,1.545a7.958,7.958,0,0,1,4.711,3.648c.508.739,1.709.046,1.2-.693-1.894-2.817-4.9-5.034-8.5-4.387C9.384.436,8,1.591,6.567,2.7A72.359,72.359,0,0,1,.286,7.04c-.693.462,0,1.663.739,1.2Z" transform="translate(73.45 36.47)"/><path class="f" d="M.881,4.067A28.244,28.244,0,0,0,6.423,2.081,4.565,4.565,0,0,1,9.61,1.666a6.775,6.775,0,0,1,1.709,1.108A25.4,25.4,0,0,1,14.182,5.36c.647.647,1.616-.369.97-.97C13.536,2.774,11.088.1,8.594,0a6,6,0,0,0-2.91.924A19,19,0,0,1,.466,2.774C-.365,2.912,0,4.252.881,4.067Z" transform="translate(83.568 41.521)"/><path class="f" d="M.664,2.931a46.786,46.786,0,0,0,6.6-1.062c1.663-.369,3.325-.785,4.849.231a10.1,10.1,0,0,1,2.863,3.51c.462.739,1.663.046,1.2-.693C14.888,2.838,13.318.529,10.686.067A9.841,9.841,0,0,0,6.853.529,47.4,47.4,0,0,1,.618,1.545c-.831.046-.831,1.432.046,1.385Z" transform="translate(87.019 46.86)"/><path class="f" d="M.471,2.436C3.289,3.5,5.736,2.251,8.461,1.6c4.2-.97,7.158,1.663,9.929,4.387.647.647,1.616-.369.97-.97C17.144,2.851,14.742.588,11.555.08,7.861-.52,4.443,2.482.795,1.1.01.773-.36,2.113.471,2.436Z" transform="translate(82.87 55.761)"/><path class="f" d="M.658,1.441A14.315,14.315,0,0,1,7.586,2.78a3.988,3.988,0,0,1,.785,6.789c-.693.554.277,1.524.97.97a5.313,5.313,0,0,0,1.016-7.3C8.278.471,3.891-.083.658.009c-.877.046-.877,1.432,0,1.432Z" transform="translate(93.074 51.352)"/><path class="f" d="M.07,1.054A7.2,7.2,0,0,1,.763,3.778c.046.877,1.432.877,1.385,0A10.079,10.079,0,0,0,1.271.315C.9-.424-.3.268.07,1.054Z" transform="translate(101.699 51.185)"/><path class="f" d="M1.357,9.426A10.679,10.679,0,0,1,10.778,1.39c.877-.092.877-1.478,0-1.385A12.01,12.01,0,0,0,.017,9.056c-.185.877,1.155,1.247,1.339.369Z" transform="translate(6.706 19.629)"/><path class="f" d="M1.385,7.833a9.1,9.1,0,0,1,2.771-6.65.686.686,0,1,0-.97-.97A10.608,10.608,0,0,0,0,7.88c0,.831,1.385.831,1.385-.046Z" transform="translate(12.035 30.135)"/><path class="f" d="M1.39,12.184a12.688,12.688,0,0,1,8.5-10.807c.831-.277.462-1.616-.369-1.339A14.175,14.175,0,0,0,0,12.184c-.092.877,1.293.877,1.385,0Z" transform="translate(15.956 31.696)"/><path class="f" d="M1.387,11.425a11.139,11.139,0,0,1,8.96-10.068c.877-.185.508-1.524-.369-1.339A12.469,12.469,0,0,0,0,11.378a.693.693,0,0,0,1.385.046Z" transform="translate(22.887 41.784)"/><path class="f" d="M1.39,11.124a12.86,12.86,0,0,1,6.6-9.837C8.779.871,8.086-.329,7.3.086A14.18,14.18,0,0,0,0,11.124C-.088,12,1.3,12,1.39,11.124Z" transform="translate(32.997 51.09)"/><path class="f" d="M.123,1.025A11.235,11.235,0,0,1,.815,13.217a.693.693,0,0,0,1.2.693A12.754,12.754,0,0,0,1.324.286c-.508-.693-1.709,0-1.2.739Z" transform="translate(45.81 54.077)"/><path class="f" d="M.017.881c.139.693.462.877,1.108,1.108A17.835,17.835,0,0,1,4.82,3.375a8.975,8.975,0,0,1,3.972,7.574.694.694,0,0,0,1.385,0,10.193,10.193,0,0,0-2.4-6.789A10.814,10.814,0,0,0,5.051,1.851C4.59,1.574,1.4.7,1.357.466,1.172-.365-.167,0,.017.881Z" transform="translate(61.895 50.11)"/><path class="i" d="M3.325,0c2.4-.185,3.879,9.56,8.313,20,3.741,8.729,11.869,27.756,28.356,33.021a41.781,41.781,0,0,0,30.019-2.679c4.249-2.217,6.466-4.526,12.008-5.681,6.235-1.293,15.656-.877,18.335,4.341A7.13,7.13,0,0,1,101,53.344c-2.586-3.187-4.942-4.11-6.65-4.341-2.448-.323-3.787.739-7.343,1.016a20.494,20.494,0,0,1-6.65-.647A54.3,54.3,0,0,0,70.013,54.36c-3.926,2.448-4.849,3.741-7.666,4.988C57.5,61.472,52.926,60.872,49,60.364a43.628,43.628,0,0,1-19.351-7.99C26.879,50.434,22.63,47.109,17,40.043A107.8,107.8,0,0,1,0,9.378C.6,4.944,1.616.141,3.325,0Z" transform="translate(1.505 7.901)"/></g><g transform="translate(98.434 79.426)"><path class="f" d="M3.6,25.267c.554,2.817,1.247,6.7,1.94,11.315A236.706,236.706,0,0,1,7.713,67.617a277.65,277.65,0,0,1-3.14,44.059c-1.432,9.56-3.187,17.5-4.572,23.369a65.479,65.479,0,0,0,37.824,17.6C55.512,124.884,68.905,104.378,77.079,92c18.473-28.125,31.358-47.107,36.577-76.294A124.524,124.524,0,0,0,115.319,2.96,93.379,93.379,0,0,0,89.087.051,106.264,106.264,0,0,0,73.2,1.991,244.479,244.479,0,0,0,36.115,11.6,250.118,250.118,0,0,0,3.6,25.267Z" transform="translate(0.398 0.877)"/><path class="g" d="M2.91,26.463c.462,3.972.97,9.283,1.339,15.61.462,7.759.462,13.9.462,18.335-.092,18.566-1.155,36.808-1.339,40.272C2.586,113.841,1.524,130.513,0,149.956c8.821-3.556,15.887-6.974,20.782-9.514A276.086,276.086,0,0,0,60.13,115.55c6.974-5.126,12.562-9.606,16.3-12.654C77.449,93.1,78.142,84.653,78.7,78c.693-8.5,1.339-16.58,1.8-27.34.277-6.373.416-9.606.462-14.04A202.91,202.91,0,0,0,79.389,8.59c-.462-3.6-.97-6.558-1.339-8.59a262.911,262.911,0,0,0-42.3,11.777A258.431,258.431,0,0,0,2.91,26.463Z" transform="translate(37.668 3.884)"/><path class="f" d="M1.068,26.375c26.6-13.439,55-21.29,84.515-24.985.877-.092.877-1.478,0-1.385a278.552,278.552,0,0,0-44.29,8.867A246.119,246.119,0,0,0,.375,25.174c-.831.416-.139,1.616.693,1.2Z" transform="translate(3.256 0)"/><path class="f" d="M.658,1.454C6.893,1.131,13.081,2.1,19.27,2.932c5.911.831,11.823,1.616,17.78,2.448.877.139,1.247-1.2.369-1.339C31.185,3.163,25,2.332,18.762,1.454,12.758.623,6.754-.255.658.069-.219.115-.219,1.5.658,1.454Z" transform="translate(3.388 25.521)"/><path class="f" d="M.658,1.558a86.883,86.883,0,0,1,27.8,2.771A.7.7,0,0,0,28.83,2.99,87.747,87.747,0,0,0,.658.173c-.877.092-.877,1.478,0,1.385Z" transform="translate(87.441 0.109)"/><path class="f" d="M1.054,26.942A309.678,309.678,0,0,1,75.177,1.357c.877-.185.508-1.524-.369-1.339A312.789,312.789,0,0,0,.315,25.741c-.739.416-.046,1.616.739,1.2Z" transform="translate(40.632 3.451)"/><path class="f" d="M2.55.658c4.018,31.589,2.032,63.5,0,95.137-.6,9.329-1.2,18.658-2.54,27.895-.139.877,1.2,1.247,1.339.369,2.309-15.795,2.91-31.866,3.787-47.8.877-16.026,1.478-32.051.97-48.077C5.783,18.993,5.136,9.756,3.936.658,3.8-.219,2.412-.219,2.55.658Z" transform="translate(36.78 29.596)"/><path class="f" d="M3.481.871A289,289,0,0,1,.017,109.586c-.185.877,1.155,1.247,1.339.369A290.956,290.956,0,0,0,4.82.5C4.682-.376,3.343-.006,3.481.871Z" transform="translate(0.381 25.042)"/><path class="f" d="M.213,1.181a65.708,65.708,0,0,0,36.9,18.566c.877.139,1.247-1.2.369-1.339A64.756,64.756,0,0,1,1.183.165C.537-.389-.433.581.213,1.181Z" transform="translate(0 134.509)"/><path class="f" d="M1.806.871C7.763,34.631,3.884,68.991,0,102.8c-.092.877,1.293.877,1.385,0C5.269,68.9,9.149,34.446,3.145.5,3.006-.376,1.667-.006,1.806.871Z" transform="translate(113.034 3.844)"/><path class="f" d="M76.614.165A312.2,312.2,0,0,1,.366,47.318c-.831.369-.092,1.57.693,1.2A314.513,314.513,0,0,0,77.584,1.181c.693-.6-.277-1.57-.97-1.016Z" transform="translate(36.471 106.384)"/><path class="f" d="M1.892,4.663a2.1,2.1,0,0,1-.554-2.725,2.112,2.112,0,0,1,2.817-.6,2.142,2.142,0,0,1,.6,2.725,2.122,2.122,0,0,1-3.187.369C1.06,3.97.321,4.709.829,5.171a3.15,3.15,0,0,0,4.48-.139A3.134,3.134,0,0,0,4.94.645a3.192,3.192,0,0,0-4.249.369A3.141,3.141,0,0,0,1.153,5.4c.554.416,1.293-.323.739-.739Z" transform="translate(43.535 30.533)"/><path class="f" d="M0,.485.694,16.28c.046.647,1.062.693,1.062,0L1.064.485C1.017-.162-.045-.162,0,.485Z" transform="translate(46.58 42.193)"/><path class="f" d="M.8,16.824A320.831,320.831,0,0,1,46.565,1.03.527.527,0,0,0,46.288.013,330.018,330.018,0,0,0,.29,15.9c-.647.323-.092,1.2.508.924Z" transform="translate(46.337 26.084)"/><path class="f" d="M.777,16.463A200.285,200.285,0,0,1,38.555,1.038.527.527,0,0,0,38.278.022,201.639,201.639,0,0,0,.269,15.586c-.6.277-.092,1.155.508.877Z" transform="translate(47.374 42.147)"/><path class="f" d="M6.605.335C4.435,5.6,2.218,10.865.047,16.13c-.277.6.739.877,1.016.277C3.234,11.142,5.451,5.877,7.621.612c.231-.6-.785-.877-1.016-.277Z" transform="translate(85.651 26.409)"/><path class="f" d="M6.332.335C4.3,5.415,2.222,10.5.051,15.529c-.277.6.647,1.155.877.508C3.1,10.911,5.27,5.785,7.3.612c.323-.6-.693-.877-.97-.277Z" transform="translate(88.371 26.179)"/><path class="f" d="M.777,6.473C5.072,4.626,9.321,2.778,13.616.931c.6-.277.092-1.155-.508-.877C8.813,1.9,4.564,3.748.269,5.6c-.6.231-.092,1.155.508.877Z" transform="translate(88.477 36.158)"/><path class="f" d="M.625,3.477A43.677,43.677,0,0,1,8.661,1.029C9.308.89,9.03-.126,8.384.013A40.389,40.389,0,0,0,.348,2.461c-.6.231-.369,1.247.277,1.016Z" transform="translate(95.233 23.406)"/><path class="f" d="M2.269.368C1.345,4.2.606,8.081.006,12.006c-.092.647.924.924,1.016.277.6-3.926,1.339-7.8,2.263-11.638C3.423,0,2.407-.279,2.269.368Z" transform="translate(101.21 23.975)"/><path class="f" d="M33.973.07Q17.14,9.63.26,19.19c-.6.323-.046,1.247.508.877Q17.6,10.508,34.482.948c.6-.323.046-1.2-.508-.877Z" transform="translate(73.246 104.769)"/><path class="f" d="M1.387.485C1.71,4.18,1.156,8.013.879,11.754.6,15.725.325,19.7,0,23.669c-.046.647.97.647,1.062,0,.277-3.972.554-7.943.877-11.915.277-3.695.831-7.528.508-11.269-.092-.647-1.155-.647-1.062,0Z" transform="translate(73.273 100.799)"/><path class="f" d="M.784,16.28a198.545,198.545,0,0,1,34.36-15.24A.527.527,0,0,0,34.867.023,201.622,201.622,0,0,0,.23,15.356c-.554.323,0,1.247.554.924Z" transform="translate(74.523 85.004)"/><path class="f" d="M2.876.485A147.313,147.313,0,0,1,.013,19.559c-.139.647.877.924,1.016.277A151.629,151.629,0,0,0,3.939.485c.046-.647-.97-.647-1.062,0Z" transform="translate(106.56 85.42)"/><path class="g" d="M.658,1.39a140.3,140.3,0,0,1,23.6,3.741.7.7,0,0,0,.369-1.339A140.732,140.732,0,0,0,.658,0C-.219-.088-.219,1.3.658,1.39Z" transform="translate(4.774 25.17)"/><path class="j" d="M45.86,0C43.6,4.11,40.087,10.714,36.254,18.935,25.909,41.149.185,96.384,17.319,113.1c3.14,3.048,10.114,7.158,27.433,3.556Q22.376,128.989,0,141.366c2.217-20.644,3.279-38.332,3.833-52.187.369-9.237.831-21.29.554-37.362-.231-13.347-.924-24.8-1.663-33.76,5.126-2.771,10.714-5.542,16.764-8.221A237.44,237.44,0,0,1,45.86,0Z" transform="translate(38.083 12.612)"/></g><g transform="translate(0 0)"><path class="g" d="M.308.825c-.831,1.155.231,3.187.739,4.2.924,1.755,3.279,5.357,9.514,8.036-2.309.508-3.233,1.432-3.648,2.217C6.08,16.8,7.1,17.867,7.1,21.515c0,2.679-.6,3.094-.369,5.311A12.112,12.112,0,0,0,8.02,31.214a33.977,33.977,0,0,0,.554,3.648,9.242,9.242,0,0,0,.554,2.032c.97,1.755,3.695,2.679,6.05,2.217a6.661,6.661,0,0,0,4.387-3.648c1.247,1.847,2.448,2.4,3.279,2.54,1.524.277,2.54-.6,5.5-1.293a19.11,19.11,0,0,1,3.464-.554c-.092,1.709-.231,4.249-.369,7.343-.416,10.206-.647,15.564-.185,21.983a104.706,104.706,0,0,0,2.4,15.748,90.3,90.3,0,0,0,6.6,19.951c2.4,5.034,6.142,12.931,14.086,20.505a53.968,53.968,0,0,0,26.186,14.455,52.556,52.556,0,0,0,23.969-.554c3.787-2.032,7.574-4.018,11.361-6.05a8.137,8.137,0,0,0,1.478-4.572,9.1,9.1,0,0,0-5.126-7.851,64.707,64.707,0,0,1-9.7,1.663,52.3,52.3,0,0,1-20.505-1.847c-3.833-1.155-13.993-4.434-21.8-13.9-3.695-4.48-5.311-8.5-8.036-15.379A111.368,111.368,0,0,1,46.306,66.59c-2.817-14.224-4.249-21.383-2.91-28.356.693-3.6,1.986-7.9,1.108-13.9-.877-5.865-3.14-8.867-3.833-9.7a21.293,21.293,0,0,0-5.5-4.572c-2.355-1.478-1.894-.647-5.865-2.725A4.718,4.718,0,0,0,26.77,6.6a4.449,4.449,0,0,0-2.725,1.293c-2.91-.831-5.357-1.616-7.158-2.217a55.777,55.777,0,0,1-7.158-2.54C7.281,1.749,6.4.548,4.048.225,3.309-.006,1.139-.329.308.825Z" transform="translate(0.293 0.708)"/><path class="f" d="M1.07.5a106.664,106.664,0,0,0,.046,30.435,144,144,0,0,0,7.251,30.2c3,8.174,7.343,15.841,14.132,21.475A47.329,47.329,0,0,0,43,92.317a52.764,52.764,0,0,0,25.862-1.108c.831-.277.508-1.616-.369-1.339C54,94.21,37.37,92.039,25.085,82.941,18.065,77.723,13.354,70.38,10.26,62.3A139.706,139.706,0,0,1,3.194,35.327,109.474,109.474,0,0,1,2.409.828C2.548,0,1.208-.373,1.07.5Z" transform="translate(43.036 26.937)"/><path class="f" d="M.707.658C-1,23.426-.263,47.3,10.359,68.039c8.913,17.411,24.616,31.4,44.52,33.806,10.807,1.293,21.983-.97,30.943-7.3.739-.508.046-1.709-.693-1.2-16.118,11.407-38.517,8.96-53.988-2.355C14.792,78.984,5.971,59.4,2.923,39.821.891,26.89,1.122,13.682,2.092.658,2.184-.219.8-.219.707.658Z" transform="translate(30.56 36.297)"/><path class="f" d="M.469,1.389A7.813,7.813,0,0,1,4.025,13.212c-.508.739.693,1.432,1.2.693A9.2,9.2,0,0,0,.838.05C.007-.273-.363,1.066.469,1.389Z" transform="translate(111.018 116.71)"/><path class="f" d="M12.825,14.479c1.616-3-2.91-2.679-4.387-3.14a15.17,15.17,0,0,1-5.5-3.833C.864,5.289.679.717,5.021,1.548c8.636,1.709,17.827,9.606,16.487,19.074-.139.877,1.2,1.247,1.339.369C24.325,10.369,14.534,2.241,4.974.116,1.464-.669-.8,2.656.264,5.889c.647,1.94,2.355,3.371,3.926,4.526A17.145,17.145,0,0,0,7.33,12.4c.508.185,4.434.97,4.2,1.385-.323.785.877,1.478,1.293.693Z" transform="translate(22.505 6.681)"/><path class="f" d="M23.046,7.352A69.619,69.619,0,0,1,7.159,1.579C4.85.378.093-1.792,0,2.78c-.046,3.648,3.233,7.343,5.958,9.375,4.11,3.094,9.237,4.249,14.178,4.988.877.139,1.247-1.2.369-1.339C13.347,14.7,3.972,12.2,1.663,4.212A3.763,3.763,0,0,1,1.386,2.78C2.263,1.3,3.233.979,4.434,1.718c.831.369,1.57.831,2.4,1.247C8.36,3.7,9.884,4.443,11.454,5.089a69.026,69.026,0,0,0,11.222,3.6.7.7,0,0,0,.369-1.339Z" transform="translate(0 0)"/><path class="f" d="M3.562.027C.975.766-.087,3.952.006,6.4a9.262,9.262,0,0,0,4.8,7.343c2.4,1.478,6.05,2.632,8.59.739a3.835,3.835,0,0,0,.647-5.727c-.6-.647-1.57.323-.97.97a2.467,2.467,0,0,1-.6,3.695,4.993,4.993,0,0,1-3.556.462,10.7,10.7,0,0,1-4.942-2.494,7.31,7.31,0,0,1-2.494-4.48C1.206,5.014,1.76,1.966,3.931,1.32,4.809,1.135,4.439-.2,3.562.027Z" transform="translate(6.091 13.191)"/><path class="f" d="M.693.466A9.943,9.943,0,0,0,3.464,11.688a7.01,7.01,0,0,0,5.4,1.616c1.894-.369,3-1.709,4.11-3.187.508-.739-.693-1.432-1.2-.693-1.2,1.616-2.586,2.863-4.711,2.448a6.667,6.667,0,0,1-4.2-2.91A8.667,8.667,0,0,1,2.079.881C2.356,0,1.017-.365.693.466Z" transform="translate(6.234 21.988)"/><path class="f" d="M0,.676C.139,4.463,1.616,8.85,5.865,9.681c4.526.877,6.974-3.741,8.128-7.343.277-.831-1.062-1.2-1.339-.369C11.73,4.832,9.837,9.081,6.05,8.25,2.54,7.511,1.478,3.77,1.385.676A.693.693,0,0,0,0,.676Z" transform="translate(7.39 31.154)"/><path class="f" d="M.017.871C.479,2.9,2.558,3.642,4.451,3.919c3,.462,5.219-1.062,8.128-1.385.877-.092.877-1.478,0-1.385a33.9,33.9,0,0,0-4.11,1.108C6.668,2.765,1.957,3.18,1.357.5,1.172-.376-.167-.006.017.871Z" transform="translate(19.426 35.207)"/><path class="f" d="M.449,4.98A10.625,10.625,0,0,0,13.057,1.009c.508-.739-.693-1.432-1.2-.693A9.226,9.226,0,0,1,.818,3.641C-.013,3.318-.337,4.657.449,4.98Z" transform="translate(31.603 32.483)"/><path class="f" d="M2.129,1.2c1.8,1.755,1.385,6.327,1.247,8.636A12.415,12.415,0,0,1,.189,17.923c-.6.647.369,1.616.97.97A13.906,13.906,0,0,0,4.715,9.841C4.9,7.07,5.269,2.359,3.1.188A.7.7,0,0,0,2.129,1.2Z" transform="translate(82.202 118.28)"/><path class="f" d="M.086,1.059A17.758,17.758,0,0,1,.225,17.731c-.416.785.785,1.478,1.2.693A19.23,19.23,0,0,0,1.287.366C.871-.465-.329.273.086,1.059Z" transform="translate(97.961 119.303)"/><path class="f" d="M.469,2.69A16.563,16.563,0,0,0,14.231,1.3.693.693,0,0,0,13.538.1,15.3,15.3,0,0,1,.838,1.351C.007,1.074-.363,2.413.469,2.69Z" transform="translate(31.583 62.806)"/><path class="f" d="M.5,6.66A15.347,15.347,0,0,0,15.973.98c.554-.693-.647-1.385-1.2-.693A13.856,13.856,0,0,1,.871,5.321C-.006,5.136-.376,6.475.5,6.66Z" transform="translate(35.799 85.9)"/><path class="f" d="M2.7.664A8.626,8.626,0,0,1,.208,7.453c-.647.647.369,1.616.97.97a9.984,9.984,0,0,0,2.91-7.8C4.041-.213,2.655-.213,2.7.664Z" transform="translate(58.861 105.15)"/><path class="f" d="M.366,1.271a8.824,8.824,0,0,0,6.327.462A.7.7,0,0,0,6.323.393,7.669,7.669,0,0,1,1.059.07C.273-.3-.465.9.366,1.271Z" transform="translate(32.471 77.527)"/><path class="f" d="M.5,2.379A17.6,17.6,0,0,0,12.094,1.271C12.925.9,12.186-.3,11.4.07a16.193,16.193,0,0,1-10.53.97A.7.7,0,0,0,.5,2.379Z" transform="translate(31.273 43.952)"/><path class="f" d="M.5,9.151A12.785,12.785,0,0,0,15.7.838c.277-.831-1.016-1.2-1.339-.369A11.368,11.368,0,0,1,.871,7.812.7.7,0,0,0,.5,9.151Z" transform="translate(43.834 100.958)"/><path class="f" d="M8.982.828C10.967,6.693,4.917,12.6.345,15.1c-.785.416-.092,1.616.693,1.2C6.164,13.528,12.538,6.924,10.321.5,10.044-.373,8.7,0,8.982.828Z" transform="translate(63.572 113.946)"/><path class="h" d="M5.186,1C6.848,2.707,4.862,5.57,6.294,7.418c.785.97,2.54,1.709,6.835.877a9.6,9.6,0,0,0,.462,3.094,10.6,10.6,0,0,0,3.51,4.849c3,2.217,7.482,2.263,11.5.231.185,2.771.508,6.7.877,11.5,2.171,27.433,3,32.374,4.2,37.085,1.385,5.542,3.14,12.423,7.713,20.09,2.863,4.757,12.469,20.274,32.236,26.463a56.812,56.812,0,0,0,36.207-1.108c-.277,1.894-.6,3.833-.877,5.727a48.542,48.542,0,0,1-9.468,4.434,53.853,53.853,0,0,1-19.859,2.217c-19.258-1.755-32.651-16.441-35.977-20.09-12.008-13.208-15.425-27.664-17-34.222-2.309-9.837-2.494-18.889-2.632-25.4a155.511,155.511,0,0,1,.877-20.321,9.723,9.723,0,0,1-5.727.877,10.388,10.388,0,0,1-5.727-2.863A6.38,6.38,0,0,1,10.127,24.6a6.265,6.265,0,0,1-5.08,0c-2.078-1.062-2.632-3.371-3.741-7.943A45.748,45.748,0,0,1,.2,8.711C-.356,1.737.382.906.844.536A3.578,3.578,0,0,1,5.186,1Z" transform="translate(6.961 14.805)"/><path class="k" d="M0,0C1.385,1.616,3.51,3.972,6.189,6.6,10.9,11.269,21.614,21.937,33.575,26.925c16.672,6.927,33.9,2.124,41.7-.647-.277.97-.6,1.894-.877,2.863-2.309,1.247-24.2,12.608-47.43,1.524C7.574,21.475,1.108,3.325,0,0Z" transform="translate(40.826 101.427)"/></g><g transform="translate(100.678 8.595)"><path class="g" d="M.734,3.81a44.8,44.8,0,0,0-.693,6.512A52.041,52.041,0,0,0,.6,20.113,50.329,50.329,0,0,0,1.75,25.793a25.127,25.127,0,0,0,7.943.831,25.726,25.726,0,0,0,9.791-2.54c-.092-1.247-.185-3.233-.416-5.681-.508-5.5-.924-7.435-.97-11.038a53.732,53.732,0,0,1,.277-6.65A21.163,21.163,0,0,0,8.031.577,19.738,19.738,0,0,0,.734,3.81Z" transform="translate(43.926 61.82)"/><path class="f" d="M.8.5c-1.57,7.3-.554,14.64.6,21.937.139.877,1.478.508,1.339-.369C1.636,15.049.62,7.891,2.144.871,2.329-.006.99-.376.8.5Z" transform="translate(43.255 64.621)"/><path class="f" d="M1.2,4.947C3.283,3.1,6.331,2.453,8.963,1.9a23.4,23.4,0,0,1,8.96-.139c.877.185,1.247-1.155.369-1.339a24.5,24.5,0,0,0-9.7.139C5.638,1.16,2.5,1.9.188,3.977c-.6.6.369,1.57,1.016.97Z" transform="translate(43.779 61.145)"/><path class="f" d="M.24.658A97.452,97.452,0,0,0,1.394,23.842c.139.877,1.478.508,1.339-.369A94.484,94.484,0,0,1,1.625.658C1.671-.219.286-.219.24.658Z" transform="translate(61.323 61.786)"/><path class="f" d="M.238,2.413c2.263,1.8,6.1,1.57,8.867,1.478A20.31,20.31,0,0,0,18.942,1.3.693.693,0,0,0,18.249.1a18.41,18.41,0,0,1-8.359,2.4c-2.355.139-6.7.462-8.636-1.062C.515.889-.455,1.859.238,2.413Z" transform="translate(44.7 85.108)"/><path class="f" d="M1.324,5.871C3.032,3.47,5.9,2.684,8.667,2.084c3.094-.693,6.281-1.339,9.144.416A.693.693,0,0,0,18.5,1.3C15.317-.641,11.761-.04,8.3.745,5.157,1.484,2.109,2.454.123,5.178c-.508.693.693,1.385,1.2.693Z" transform="translate(43.383 67.841)"/><path class="f" d="M1.208,5.93A20.307,20.307,0,0,1,18.065,1.774c.877.185,1.247-1.155.369-1.339A21.779,21.779,0,0,0,.238,4.961c-.693.554.277,1.524.97.97Z" transform="translate(43.775 75.679)"/><path class="f" d="M1.068,2.278A11.917,11.917,0,0,1,6.01,1.355c1.2,0,3.879-.139,4.711.831.6.693,1.57-.323.97-.97C10.628-.031,8.226.108,6.749.015A14.428,14.428,0,0,0,.375,1.124c-.831.323-.139,1.478.693,1.155Z" transform="translate(51.628 81.225)"/><path class="f" d="M0,59.576a61.76,61.76,0,0,0,17.965,6.789c8.5,1.755,15.1,1.2,22.537.554a137.881,137.881,0,0,0,25.909-5.08A155.827,155.827,0,0,0,97.585,48.815a115.581,115.581,0,0,0,2.124-15.7,114.014,114.014,0,0,0-.139-17A90.463,90.463,0,0,0,90.1,7.066,85.085,85.085,0,0,0,80.312,0Q40.133,29.788,0,59.576Z" transform="translate(1.156 0.928)"/><path class="g" d="M80.589,0a84.927,84.927,0,0,1,2.124,9.652,85.453,85.453,0,0,1,.139,23.923,87.276,87.276,0,0,1-2.679,13.162c-1.663,1.016-3.972,2.355-6.789,3.833a106.141,106.141,0,0,1-19.951,7.943,110.9,110.9,0,0,1-24.523,3.695A118.5,118.5,0,0,1,0,59.807C.831,45.721,1.709,31.682,2.54,17.6c2.632-1.293,6.281-3,10.761-4.8A179.725,179.725,0,0,1,48.446,3,193.821,193.821,0,0,1,80.589,0Z" transform="translate(0.74 0.882)"/><path class="f" d="M2.864.693C1.895,14.732.925,28.818,0,42.858c-.046.877,1.339.877,1.385,0C2.356,28.818,3.326,14.732,4.25.693c.046-.924-1.339-.924-1.385,0Z" transform="translate(0 17.739)"/><path class="f" d="M1.038,18.288a185,185,0,0,1,76.248-16.9.694.694,0,0,0,0-1.385A185.991,185.991,0,0,0,.345,17.088c-.785.369-.092,1.57.693,1.2Z" transform="translate(3.258 0.328)"/><path class="f" d="M.5,14A106.038,106.038,0,0,0,81.23,1.3c.739-.462.046-1.663-.693-1.2A104.862,104.862,0,0,1,.871,12.666.7.7,0,0,0,.5,14Z" transform="translate(0.007 47.007)"/><path class="f" d="M.407.871A84.174,84.174,0,0,1,.038,47.839c-.277.877,1.062,1.2,1.339.369A85.093,85.093,0,0,0,1.746.5.7.7,0,0,0,.407.871Z" transform="translate(79.906 0.242)"/><path class="f" d="M.316,1.3A78.238,78.238,0,0,1,19.3,18.478c.554.693,1.524-.277.97-.97A79.3,79.3,0,0,0,1.009.143C.27-.411-.423.79.316,1.3Z" transform="translate(80.783 0)"/><path class="f" d="M1.819.652A110.5,110.5,0,0,1,.017,32.8c-.185.877,1.155,1.247,1.339.369A111.122,111.122,0,0,0,3.2.7C3.112-.225,1.726-.225,1.819.652Z" transform="translate(97.984 17.41)"/><path class="f" d="M.471,12.556c3.833,1.57,7.666,3.094,11.5,4.664a34.368,34.368,0,0,0,8.821,1.986,94.616,94.616,0,0,0,21.383.554c11.961-1.016,23.784-4.434,35.007-8.544A164.981,164.981,0,0,0,99.165,1.287c.785-.416.092-1.616-.693-1.2A175.16,175.16,0,0,1,63.049,14.264C50.118,17.959,36.91,19.575,23.471,18.1c-3.233-.369-6.835-.6-9.883-1.755C9.292,14.726,5.044,12.879.795,11.17.01,10.893-.36,12.232.471,12.556Z" transform="translate(0.13 48.872)"/><path class="f" d="M.5,1.35a60.5,60.5,0,0,0,18.7.693c.877-.092.877-1.478,0-1.385A59.592,59.592,0,0,1,.871.01C-.006-.128-.376,1.165.5,1.35Z" transform="translate(79.765 48.071)"/><path class="f" d="M2.59,9.089c-1.2-.554-1.016-2.263-1.062-3.325a10.422,10.422,0,0,1-.046-1.709,4.067,4.067,0,0,1,.369-1.8c.323-.739.831-.831,1.432-.369,1.062.369.924.647.924,1.663,0,.6-.046,1.155-.092,1.755s-.046,1.247-.092,1.847c0,.185-.508,3.371-1.385,2.078-.508-.739-1.709-.046-1.2.693,1.339,1.986,3.464.416,3.833-1.385a27.564,27.564,0,0,0,.323-5.172A3.385,3.385,0,0,0,4.483.453C2.4-1.025.373,1.423.142,3.362-.089,5.348-.32,9.32,1.9,10.336c.785.323,1.478-.877.693-1.247Z" transform="translate(14.407 19.41)"/><path class="f" d="M.618.469a13.237,13.237,0,0,0,.508,8.544c.277.693,1.385.647,1.339-.185A56.86,56.86,0,0,1,2.881.884H1.5a26.086,26.086,0,0,1,.231,3.279A7.786,7.786,0,0,1,1.68,5.641c-.046.323-.462,1.478-.277.369.139-.877-1.247-.877-1.385,0C-.167,7.35,1.126,9.382,2.558,8c.554-.554.508-1.616.554-2.355A27.157,27.157,0,0,0,2.927.884a.694.694,0,0,0-1.385,0,45.578,45.578,0,0,0-.416,7.943c.462-.046.924-.139,1.339-.185a12.217,12.217,0,0,1-.508-7.8A.7.7,0,0,0,.618.469Z" transform="translate(15.732 20.272)"/><path class="f" d="M.349.469A5.5,5.5,0,0,0,.072,3.332.661.661,0,0,0,.9,3.794a.629.629,0,0,0,.462-.831A4.747,4.747,0,0,1,1.642.838C2.012.007.672-.363.349.469Z" transform="translate(15.493 21.427)"/><path class="f" d="M2.641,9.095c-1.2-.554-1.016-2.263-1.062-3.325a9.458,9.458,0,0,1-.046-1.616,2.992,2.992,0,0,1,.092-.924c.046-1.062.924-1.385,2.54-.924.462.693.046,2.632,0,3.371-.046.508-.046,1.016-.092,1.524,0,.185-.508,3.371-1.385,2.078-.508-.739-1.709-.046-1.2.693,1.339,1.986,3.464.416,3.833-1.385a29.615,29.615,0,0,0,.323-4.942A3.826,3.826,0,0,0,4.673.6C2.688-1.112.517,1.2.194,3.137-.13,5.123-.314,9.279,1.9,10.342c.877.323,1.57-.831.739-1.247Z" transform="translate(52.687 12.385)"/><path class="f" d="M.618.5a13.237,13.237,0,0,0,.508,8.544c.277.693,1.385.647,1.339-.185A56.86,56.86,0,0,1,2.881.917H1.5A26.086,26.086,0,0,1,1.726,4.2,7.786,7.786,0,0,1,1.68,5.674C1.634,6,1.218,7.152,1.4,6.044c.139-.877-1.247-.877-1.385,0C-.167,7.383,1.126,9.415,2.558,8.03c.554-.554.508-1.616.554-2.355A27.157,27.157,0,0,0,2.927.917a.694.694,0,0,0-1.385,0,45.578,45.578,0,0,0-.416,7.943c.462-.046.924-.139,1.339-.185a12.217,12.217,0,0,1-.508-7.8A.7.7,0,0,0,.618.5Z" transform="translate(54.11 13.265)"/><path class="f" d="M.349.449A5.5,5.5,0,0,0,.072,3.312.661.661,0,0,0,.9,3.774a.629.629,0,0,0,.462-.831A4.747,4.747,0,0,1,1.642.818C2.012-.013.672-.337.349.449Z" transform="translate(53.871 14.427)"/><path class="f" d="M.489,3.383c4.064.554,9.468.046,13.07-2.078A.693.693,0,0,0,12.866.1C9.587,2,4.553,2.552.858,2.044.027,1.951-.389,3.291.489,3.383Z" transform="translate(27.684 32.413)"/><path class="f" d="M.07,2.9c1.247,2.771,4.3,6.65,7.8,6.189,3.464-.416,5.542-5.311,6.281-8.221A.7.7,0,0,0,12.816.5c-.508,2.078-1.986,5.958-4.2,6.881-3.233,1.339-6.189-2.725-7.3-5.219C.9,1.425-.3,2.118.07,2.9Z" transform="translate(27.457 32.985)"/><path class="f" d="M.378,2.8c3.556,1.663,8.867.785,11.869-1.616l-.97-.97A9.544,9.544,0,0,1,5.043,2.428c-1.247,0-2.263-.647-3.279.185a.773.773,0,0,0-.185.693c.231,1.247,1.94,1.847,3,2.032,2.217.369,4.249-.693,6-1.986L9.753,2.244c-1.57,1.8-5.588,2.771-7.3.6-.508-.647-1.432.185-1.108.831C2.318,5.43,3.8,7.185,6.013,7.047c2.309-.092,3.741-2.078,4.9-3.833C11.37,2.521,10.4,1.92,9.8,2.382A8.622,8.622,0,0,1,6.844,3.768c-.739.277-1.293.139-1.016,1.062a1.616,1.616,0,0,0,1.663.97c1.986-.092,4.018-2.956,4.9-4.48.369-.647-.554-1.432-1.108-.831C9.523,2.382,8.507,5.43,5.689,5.846c-.877.139-.508,1.478.369,1.339,3.187-.508,4.249-3.648,6.189-5.727L11.139.627c-.647,1.062-1.755,2.817-3,3.325-.97.369-.831.139-1.57-.647a2.555,2.555,0,0,0-.554-.647,1.279,1.279,0,0,0-1.94.785.665.665,0,0,0,.185.693C6.244,6.308,8.83,4.83,10.723,3.4L9.615,2.567C8.691,3.952,7.86,5.292,6.105,5.523,4.3,5.8,3.288,4.46,2.5,2.983l-1.108.831c2.171,2.725,7.158,1.755,9.237-.6.508-.554-.185-1.57-.831-1.108C8.322,3.214,6.521,4.276,4.627,3.86a2.97,2.97,0,0,1-1.755-.831.875.875,0,0,0,.739.647A4.774,4.774,0,0,0,5.6,3.768a11.435,11.435,0,0,0,6.558-2.632c.693-.554-.277-1.524-.97-.97C8.784,2.059,3.888,2.936.979,1.551.24,1.228-.453,2.428.378,2.8Z" transform="translate(28.302 33.645)"/><path class="f" d="M1.025,3.777A19.773,19.773,0,0,0,3.98,1.191L2.872.36a24.45,24.45,0,0,0-1.339,2.4,1.135,1.135,0,0,0,.185,1.247,1.115,1.115,0,0,0,1.247.139A14.116,14.116,0,0,0,5.135,2.623l-.97-.97c-.277.693-1.2,2.032-.416,2.679.877.739,1.663-.554,2.124-1.108.554-.693-.416-1.663-.97-.97-.185.185-.554.877-.831.924.231.046.462.139.693.185-.046-.046-.092-.092-.092-.139.046.185.139.323.185.508a4.714,4.714,0,0,1,.508-1.339c.231-.554-.323-1.385-.97-.97-.277.185-1.8,1.524-2.032,1.432.139.092.277.231.416.323-.046-.046-.046-.139-.092-.185.046.185.046.369.092.554A9.17,9.17,0,0,1,4.073,1.052.7.7,0,0,0,2.964.221,18.464,18.464,0,0,1,.286,2.576c-.693.508,0,1.709.739,1.2Z" transform="translate(32.598 35.991)"/><path class="f" d="M2.264.658Q.671,19.293,0,38.02c-.046.877,1.339.877,1.385,0Q2.079,19.316,3.65.658c.092-.877-1.293-.877-1.385,0Z" transform="translate(4.387 20.129)"/><path class="f" d="M1.828.838c3.51,13.116,1.293,26.648-1.8,39.579a.7.7,0,0,0,1.339.369c3.187-13.162,5.4-26.971,1.8-40.318A.7.7,0,0,0,1.828.838Z" transform="translate(75.853 5.309)"/><path class="g" d="M.5,1.349c4.064.739,8.174,1.478,12.238,2.217.877.139,1.247-1.155.369-1.339C9.046,1.488,4.935.749.871.01-.006-.129-.376,1.211.5,1.349Z" transform="translate(81.751 46.87)"/><path class="l" d="M33.644,1.74a9.839,9.839,0,0,0-1.062,2.494,11.252,11.252,0,0,0-.231,3.972A37.106,37.106,0,0,1,11.384,19.1,33.142,33.142,0,0,1,.3,18.874c-.323,1.2-.554,2.725.231,3.371.508.462,1.247.277,2.494.231a19.972,19.972,0,0,1,4.2.416c2.863.323,10.437-1.016,18.658-5.634a51,51,0,0,0,8.59-6.1,5.927,5.927,0,0,0,4.387,2.309c3.464-.046,5.08-3.833,5.219-4.2A6.912,6.912,0,0,0,43.25,2.34,6.493,6.493,0,0,0,38.863.031,7.007,7.007,0,0,0,33.644,1.74Z" transform="translate(53.874 17.939)"/><path d="M1,.163C-1.127,3.488.166,8.338,4.646,8.245a.346.346,0,0,0,0-.693C.674,7.645-.2,3.3,1.6.486,1.875.117,1.275-.206,1,.163Z" transform="translate(89.014 20.439)"/><path d="M1.465,3.821A1.954,1.954,0,0,1,.726,1.835C.911,1.143,1.788.45,2.527.819A1.885,1.885,0,0,1,3.22,3.175,1.183,1.183,0,0,1,1.234,3.5c-.277-.369-.877,0-.6.369a1.9,1.9,0,0,0,2.817.185A2.63,2.63,0,0,0,3.358.5,1.952,1.952,0,0,0,.4.958,2.475,2.475,0,0,0,1,4.283c.323.277.785-.185.462-.462Z" transform="translate(91.687 21.261)"/><path class="a" d="M.071.486A3.058,3.058,0,0,1,.487,3.719c-.185.416.416.739.6.369A3.778,3.778,0,0,0,.672.163C.395-.206-.206.117.071.486Z" transform="translate(63.847 36.788)"/><path class="a" d="M.052.517A2.742,2.742,0,0,1,.1,3.057c-.185.416.416.739.6.369A3.618,3.618,0,0,0,.652.193a.341.341,0,1,0-.6.323Z" transform="translate(56.015 36.85)"/><path class="a" d="M.085.591a1.477,1.477,0,0,1,.092,1.94c-.277.323.231.831.508.508A2.186,2.186,0,0,0,.593.129C.27-.24-.192.268.085.591Z" transform="translate(58.014 37.283)"/><path class="a" d="M.133.652A1.48,1.48,0,0,1,.179,2.961c-.323.277.139.785.508.508A2.2,2.2,0,0,0,.5.052C.133-.179-.191.421.133.652Z" transform="translate(60.23 37.268)"/><path class="a" d="M1.618,3.335c-.97-.369-.647-1.57,0-2.032a1.274,1.274,0,0,1,1.894.369A1.368,1.368,0,0,1,1.248,3.2C.833,2.688.094,3.427.51,3.935a2.586,2.586,0,0,0,3.556.231,2.481,2.481,0,0,0,0-3.51A2.411,2.411,0,0,0,.556.887a2.157,2.157,0,0,0,.785,3.464c.647.185.877-.785.277-1.016Z" transform="translate(69.828 3.458)"/><path class="m" d="M34.222,0a182.4,182.4,0,0,0,1.986,18.566C36.9,23,37.732,27.248,38.655,31.174q-1.524.97-3.187,1.94A66.619,66.619,0,0,1,20,39.486,41.268,41.268,0,0,0,29,38.794a40.419,40.419,0,0,0,10.114-3.325A93.4,93.4,0,0,1,24.246,48.723,93.95,93.95,0,0,1,0,61.192c5.034,1.755,10.068,3.51,15.056,5.265.369,6.835.739,13.67,1.108,20.551,2.54-.647,5.08-1.293,7.666-1.986-.369-4.3-.693-8.729-.877-13.347-.092-2.586-.185-5.126-.231-7.666,4.387-1.2,7.99-2.355,10.714-3.279A164.837,164.837,0,0,0,52.649,52.88c3.325-1.616,6-3.094,7.851-4.156.508-3.187.97-6.512,1.293-10.068a143.629,143.629,0,0,0,.416-22.491,70.222,70.222,0,0,0-8.5-8.729A69.09,69.09,0,0,0,43.227,0Z" transform="translate(39.072 1.067)"/></g></g><g transform="translate(55.499 261.354)"><g transform="translate(0 0)"><g class="d" transform="translate(88.709 51.385)"><path class="a" d="M.493,1.358Q6.624,2.522,12.831,3.263T25.325,4.315q6.289.31,12.619.181t12.71-.708a.7.7,0,0,0,.5-.27.827.827,0,0,0,.166-.5.692.692,0,0,0-.166-.468.569.569,0,0,0-.5-.17q-6.312.564-12.613.695Q31.759,3.2,25.509,2.9q-6.231-.3-12.409-1.022Q6.941,1.159.856.015A.7.7,0,0,0,.314.137.788.788,0,0,0,.028.561a.682.682,0,0,0,.037.486.6.6,0,0,0,.428.31Z"/></g><path class="e" d="M0,1.482q.129,6.251.252,12.5T.5,26.489Q.617,32.742.739,39T.991,51.5q6.472,1.934,13.526,3.775,7.07,1.836,14.714,3.518,7.664,1.677,15.894,3.137,8.254,1.454,17.069,2.627c8.395,1.1,16.583,1.9,24.533,2.454,7.987.554,15.733.855,23.205.951,7.5.1,14.732-.016,21.651-.287,6.946-.272,13.579-.7,19.866-1.248q.264-6.671.536-13.336t.545-13.331q.273-6.666.545-13.335t.537-13.348q-8.106-.27-16.275-.617-8.144-.346-16.347-.768-8.177-.421-16.411-.917-8.207-.494-16.466-1.063Q76.392,8.9,64.994,7.965,53.645,7.037,42.614,6,31.629,4.97,20.955,3.836,10.325,2.708,0,1.482Z"/><g class="d" transform="translate(4.923 7.481)"><path class="a" d="M.469,1.914Q9.575,3.922,18.824,5.5q9.28,1.582,18.69,2.727,9.443,1.148,19.005,1.851,9.6.7,19.3.956a.572.572,0,0,0,.483-.193.721.721,0,0,0,.161-.469.786.786,0,0,0-.161-.485.635.635,0,0,0-.483-.241Q66.167,9.4,56.613,8.7,47.1,8.011,37.691,6.875q-9.368-1.132-18.609-2.7Q9.877,2.6.815.6A.619.619,0,0,0,.3.706a.77.77,0,0,0-.273.419.709.709,0,0,0,.035.485.56.56,0,0,0,.408.3Z"/></g><g class="d" transform="translate(6.003 17.143)"><path class="a" d="M.47,1.523q4.17,1.289,8.4,2.362T17.4,5.819q4.3.861,8.658,1.507t8.777,1.082a.528.528,0,0,0,.472-.164.683.683,0,0,0,.157-.455.822.822,0,0,0-.157-.488.661.661,0,0,0-.472-.264Q30.476,6.6,26.155,5.959t-8.576-1.5q-4.254-.854-8.451-1.917T.816.209A.578.578,0,0,0,.3.264a.689.689,0,0,0-.273.4.764.764,0,0,0,.035.5.652.652,0,0,0,.408.356Z"/></g><g class="d" transform="translate(39.835 53.429)"><path class="a" d="M.479,1.338c7.757,1.272,15.58,2.548,23.46,3.692C31.856,6.181,39.83,7.2,47.854,7.949,55.915,8.7,64.027,9.188,72.18,9.264A212.775,212.775,0,0,0,96.871,8.121a.7.7,0,0,0,.5-.269.826.826,0,0,0,.166-.5.693.693,0,0,0-.166-.468.569.569,0,0,0-.5-.171A212.442,212.442,0,0,1,72.263,7.872c-8.122-.069-16.2-.544-24.228-1.288C40.044,5.842,32.1,4.833,24.216,3.691,16.365,2.553,8.568,1.284.832.015A.66.66,0,0,0,.305.142.806.806,0,0,0,.027.57a.685.685,0,0,0,.036.482.542.542,0,0,0,.416.287Z"/></g><g class="d" transform="translate(120.99 17.937)"><path class="a" d="M1.231,1.7q.295,2.386.365,4.772t-.082,4.76q-.152,2.375-.524,4.733T.03,20.656a.664.664,0,0,0-.016.33.652.652,0,0,0,.131.273.773.773,0,0,0,.235.194.821.821,0,0,0,.3.093l2.976.25,2.973.251L9.6,22.3l2.991.252c.43.036.995.14,1.616.245a19.346,19.346,0,0,0,1.959.255,5.588,5.588,0,0,0,1.838-.133A1.97,1.97,0,0,0,19.261,22a3,3,0,0,0,.3-.852,7.155,7.155,0,0,0,.128-.994c.023-.341.032-.685.041-1.012s.018-.635.041-.906q.035-.635.063-1.271t.054-1.271q.026-.635.054-1.271t.063-1.271c.047-.965.1-1.927.178-2.885s.172-1.913.3-2.864.289-1.9.494-2.838a28.6,28.6,0,0,1,.757-2.809.631.631,0,0,0,.016-.325.771.771,0,0,0-.133-.3.7.7,0,0,0-.238-.209.515.515,0,0,0-.3-.059q-2.278.186-4.544.231t-4.515-.051Q9.775.948,7.539.712T3.081.1A.815.815,0,0,0,2.7.121.656.656,0,0,0,2.422.3a.678.678,0,0,0-.16.288.819.819,0,0,0-.013.362c.023.14.04.246.059.332A1.244,1.244,0,0,0,2.37,1.5a1.242,1.242,0,0,0,.106.2c.047.074.108.162.189.279a.694.694,0,0,0,.474.31.782.782,0,0,0,.509-.1A.693.693,0,0,0,3.967,1.8a.6.6,0,0,0-.1-.531L3.8,1.091,3.73.916,3.66.74,3.591.565,3.382.777,3.174.989,2.966,1.2l-.208.212q2.274.394,4.554.641t4.574.348q2.295.1,4.6.058t4.642-.229c-.058-.07-.117-.144-.175-.218s-.115-.151-.17-.227-.11-.153-.161-.227-.1-.148-.148-.219a29.618,29.618,0,0,0-1.057,4.244c-.251,1.425-.415,2.861-.531,4.3s-.187,2.888-.251,4.336-.123,2.9-.216,4.344c-.012.129-.018.323-.023.547s-.012.476-.023.723-.029.488-.058.688a1.132,1.132,0,0,1-.128.441,1.038,1.038,0,0,1-.489.362,1.932,1.932,0,0,1-.625.106,5,5,0,0,1-.651-.035c-.209-.022-.4-.049-.568-.061L14.6,21.226l-1.262-.107-1.27-.107L10.781,20.9,8.265,20.69l-2.521-.214-2.517-.214-2.5-.213c.058.07.116.143.173.218s.113.151.168.227.108.152.16.227.1.148.147.218q.607-2.369,1-4.772t.549-4.827Q3.074,8.916,3,6.478T2.619,1.6a.614.614,0,0,0-.269-.445.827.827,0,0,0-.494-.137A.7.7,0,0,0,1.4,1.2a.581.581,0,0,0-.165.5Z"/></g></g></g></g><g transform="translate(287.396 262.755)"><path class="n" d="M0,1.894Q.623,36.254,1.247,70.66q47.661,6.027,95.276,12.008Q97.769,41.311,99.063,0,49.531.97,0,1.894Z"/><path class="o" d="M77.164,69.751c.462-.877,1.524-2.263,1.663-3.279.092-.739-.6-1.478-.97-2.078-1.524-2.54-3.048-5.126-4.526-7.666-.739-1.247-1.663-2.54-2.263-3.833-.739-1.57-.046-2.078.739-3.418a45.684,45.684,0,0,0,3.187-6.6C78.134,34.559,78.642,25,74.9,16.779,68.805,3.339,54.073.291,40.726.014,26.917-.309,12.97,4.863,4.749,16.409-4.764,29.756.916,48.46,13.8,57.327c13.439,9.283,32.236,8.867,46.275,1.339.785-.416.092-1.616-.693-1.2a45.428,45.428,0,0,1-36.762,2.771C10.06,55.8.408,43.38,1.332,29.664,2.394,14.239,17.542,4.309,31.535,2a59.242,59.242,0,0,1,12.793-.462c5.865.323,11.777,1.155,17.134,3.648A25.144,25.144,0,0,1,75.686,23.706c1.8,9.7-1.247,19.674-6.65,27.664a.629.629,0,0,0,0,.693l4.988,8.451c.739,1.293,1.524,2.54,2.263,3.833.462.785,1.062,1.432.97,2.4-.046.693-.877,1.709-1.2,2.355a.643.643,0,1,0,1.108.647Z" transform="translate(5.78 5.482)"/><path class="o" d="M.238,1.159a62.477,62.477,0,0,0,16.811,9.976c.831.323,1.2-1.016.369-1.339A61.849,61.849,0,0,1,1.208.189c-.693-.6-1.663.369-.97.97Z" transform="translate(65.156 63.637)"/><ellipse class="p" cx="3.325" cy="4.849" rx="3.325" ry="4.849" transform="translate(20.828 31.729)"/><ellipse class="p" cx="3.325" cy="4.849" rx="3.325" ry="4.849" transform="translate(39.855 31.128)"/><ellipse class="p" cx="3.325" cy="4.849" rx="3.325" ry="4.849" transform="translate(58.375 30.573)"/></g></g></svg>