<svg xmlns="http://www.w3.org/2000/svg" xmlns:xlink="http://www.w3.org/1999/xlink" width="560" height="372" viewBox="0 0 560 372"><defs><style>.a,.d,.f,.m,.p{fill:none;}.b{clip-path:url(#a);}.c{fill:#f7faff;}.c,.d{stroke:#e2edff;}.c,.d,.i,.k,.m,.p{stroke-miterlimit:10;}.c,.i,.k,.m{stroke-width:3px;}.d{stroke-width:16px;}.e,.i{fill:#98bfff;}.f,.i,.k,.m,.p{stroke:#98bfff;}.f{stroke-linecap:round;stroke-linejoin:round;}.g{fill:#ef3230;}.h{fill:#ffbd20;}.j{fill:#fff;}.k{fill:#e2edff;}.l{fill:#0a0945;}.n,.o{fill:#3d3d3d;}.n{opacity:0.03;}.o{opacity:0.07;}.q{fill:#ec615b;}.r{fill:#ffb2b1;}.s{fill:#005cfb;}</style><clipPath id="a"><rect class="a" width="560" height="372" transform="translate(286 324)"/></clipPath></defs><g class="b" transform="translate(-286 -324)"><g transform="translate(0 -42)"><g transform="translate(304.999 313.504)"><g transform="translate(0 280.947)"><path class="c" d="M426.194,129.782Q213.116,101.333,0,72.923,62.878,36.461,125.8,0,318.03,18.927,510.3,37.893,468.21,83.818,426.194,129.782Z" transform="translate(1.393 0)"/><path class="d" d="M0,0Q213.6,28.333,427.162,56.666" transform="translate(0 76.213)"/><path class="d" d="M0,94.675Q44.764,47.357,89.489,0" transform="translate(424.452 39.055)"/><path class="e" d="M42.888.135Q21.115,17.146.195,35.164c-.581.5.271,1.316.813.813Q21.967,17.978,43.7.948c.581-.426-.232-1.277-.813-.813Z" transform="translate(334.034 50.687)"/><path class="e" d="M.423,1.106a69.379,69.379,0,0,0,13.9,1.006A56.2,56.2,0,0,1,29.569,4.2c9.444,2.748,18.7,4.567,28.565,4.335a.581.581,0,0,0,0-1.161A83.1,83.1,0,0,1,42.961,6.37,131.027,131.027,0,0,1,29.143,2.925a52.335,52.335,0,0,0-13.431-1.9C10.68.913,5.648,1.067.694.022A.559.559,0,0,0,.423,1.106Z" transform="translate(334.347 85.364)"/><path class="e" d="M.552,1.165A291.434,291.434,0,0,1,46.031,8.48a.582.582,0,0,0,.31-1.122A290.11,290.11,0,0,0,.552,0c-.735-.077-.735,1.084,0,1.161Z" transform="translate(377.221 50.508)"/><path class="e" d="M.992,34.455c10.8-10.683,21.172-21.83,31-33.442C32.46.432,31.647-.381,31.182.2c-9.831,11.573-20.2,22.721-31,33.442a.575.575,0,1,0,.813.813Z" transform="translate(392.38 58.75)"/><path class="e" d="M.552,1.759A80.966,80.966,0,0,1,39.838,6.675c.7.271,1.006-.852.31-1.122A82.228,82.228,0,0,0,.552.6c-.735.077-.735,1.239,0,1.161Z" transform="translate(347.727 80.105)"/><path class="e" d="M.566,1.162A156.409,156.409,0,0,1,24.874,4.955a.582.582,0,0,0,.31-1.122A155.1,155.1,0,0,0,.566,0c-.774-.039-.735,1.122,0,1.161Z" transform="translate(367.878 76.444)"/><path class="e" d="M.552,1.161A149.343,149.343,0,0,1,37.052,6.5a.582.582,0,0,0,.31-1.122A151.594,151.594,0,0,0,.552,0a.581.581,0,0,0,0,1.161Z" transform="translate(361.739 67.891)"/><path class="e" d="M.421,1.131c6.657.929,13.238,2.09,19.818,3.484.735.155,1.045-.968.31-1.122C13.968,2.1,7.388.937.73.008-.005-.108-.315,1.015.421,1.131Z" transform="translate(377.197 64.36)"/><path class="e" d="M7.2.265C4.84,3.9,2.479,7.542.079,11.141a.6.6,0,0,0,.5.89A162.92,162.92,0,0,1,57.674,15.67a.582.582,0,0,0,.31-1.122,164.7,164.7,0,0,0-57.4-3.716c.155.31.348.581.5.89C3.447,8.083,5.808,4.445,8.208.845,8.634.226,7.627-.355,7.2.265Z" transform="translate(361.94 91.198)"/><path class="e" d="M.547,1.626l22.372-.464a8.93,8.93,0,0,1-.542-.735Q14.655,18.831,6.895,37.2c-.271.7.852,1.006,1.122.31Q15.739,19.1,23.5.735C23.654.387,23.267,0,22.958,0L.586.464C-.189.5-.189,1.664.547,1.626Z" transform="translate(415.39 67.852)"/><path class="e" d="M.73,1.537a21.965,21.965,0,0,1,5.961-.31c.735.039.735-1.122,0-1.161A24.3,24.3,0,0,0,.421.415C-.315.531-.005,1.653.73,1.537Z" transform="translate(386.913 96.777)"/><path class="e" d="M.552,1.162A159.8,159.8,0,0,1,18.743,2.9c.735.116,1.045-1.006.31-1.122A155.875,155.875,0,0,0,.552,0c-.735-.039-.735,1.122,0,1.161Z" transform="translate(398.084 97.268)"/><path class="e" d="M.552,1.161H4.887A.581.581,0,0,0,4.887,0H.552a.581.581,0,0,0,0,1.161Z" transform="translate(398.432 89.992)"/><path class="e" d="M.552,1.161A103.165,103.165,0,0,1,14.757,2.516c.735.116,1.045-1.006.31-1.122A113.722,113.722,0,0,0,.552,0a.581.581,0,0,0,0,1.161Z" transform="translate(407.451 89.876)"/><path class="e" d="M.552,1.162A161.342,161.342,0,0,1,16.731,2.168c.735.077.735-1.084,0-1.161A150.645,150.645,0,0,0,.552,0c-.735-.039-.735,1.122,0,1.161Z" transform="translate(406.715 83.256)"/><path class="e" d="M.552,2a28.861,28.861,0,0,0,7.7-.852A.582.582,0,0,0,7.944.022,26.435,26.435,0,0,1,.552.835.581.581,0,0,0,.552,2Z" transform="translate(370.37 95.272)"/><path class="e" d="M1.478.216C.472,1.455-.69,3.97.51,5.48c.735.929,2.129.735,3.174.774,1.9.077,3.793.194,5.69.271,7.7.348,15.366.735,23.069,1.084.735.039.735-1.122,0-1.161L15.412,5.635c-2.787-.116-5.535-.271-8.322-.387-1.355-.077-2.787,0-4.142-.194-1.006-.155-1.742-.194-1.7-1.432A4.531,4.531,0,0,1,2.291,1.029C2.755.448,1.943-.4,1.478.216Z" transform="translate(387.829 36.4)"/><path class="e" d="M.552,1.2c6.5.232,13.005.426,19.508.658,3.174.116,6.387.194,9.56.31,2.864.116,5.883.31,7.935,2.516.5.542,1.316-.271.813-.813A9.23,9.23,0,0,0,32.484,1.2C29.155.774,25.711.852,22.343.735,15.066.5,7.79.232.552,0c-.735.039-.735,1.2,0,1.2Z" transform="translate(389.801 36.887)"/><path class="e" d="M.581,3.78A13.357,13.357,0,0,0,8.786,1.109C9.367.683,8.786-.323,8.206.1A12.282,12.282,0,0,1,.581,2.619a.581.581,0,0,0,0,1.161Z" transform="translate(419.305 40.268)"/><path class="e" d="M2,.1A4.466,4.466,0,0,0,.176,5.057.583.583,0,0,0,1.3,4.748,3.326,3.326,0,0,1,2.576,1.071C3.2.684,2.615-.323,2,.1Z" transform="translate(418.819 37.984)"/></g><g transform="translate(1.768 0)"><path class="e" d="M14.37,1.067c6.58,1.045,15.792,4.1,13.354,12.7-1.122,3.948-4.219,6.774-7.277,9.289A108.7,108.7,0,0,0,11.7,30.639a72.5,72.5,0,0,0-7.238,8.515C2.719,41.554.319,44.535.59,47.747c.232,2.864,2.748,3.561,5.032,4.451,3.29,1.277,6.774,3.522,8.051,6.967,1.7,4.645-1.858,8.748-5.225,11.5C5.429,73.138,2.138,75.267.087,78.673a.581.581,0,0,0,1.006.581c3.677-6.193,13.044-8.67,14.089-16.489a9.241,9.241,0,0,0-3.174-7.973A17.687,17.687,0,0,0,8.331,52.16c-1.587-.852-3.445-1.2-4.993-2.09C-1,47.554,4.422,41.128,6.28,38.69a68.616,68.616,0,0,1,8.941-9.715c5.264-4.8,13.508-9.057,14.089-17.069C29.891,3.777,21.182,1.029,14.757.022c-.813-.194-1.122.929-.387,1.045Z" transform="matrix(0.914, -0.407, 0.407, 0.914, 163.981, 172.522)"/><g transform="translate(0 68.664)"><path class="e" d="M96.983,0A39.656,39.656,0,0,0,76.852,5.257C57.874,16.392,59.994,36.215,61.865,53.7c.14,1.308.278,2.6.4,3.868,1.018,10.2-2.328,16.722-6.735,20.885q-.218-.523-.457-1.048C50,66.273,30.712,57.978,16.823,57.977h-.069c-7.968.016-13.55,2.671-15.718,7.475C-1.016,70-.007,74.444,3.954,78.307c8.64,8.428,30.387,12.59,45.477,5.325a27.1,27.1,0,0,0,5.757-3.694c6.31,16.949-4.492,32.111-14.069,45.55-1.754,2.462-3.411,4.787-4.98,7.13-9.669,14.435-18.211,29.986-15.267,45.9,1.621,8.756,6.794,15.838,14.962,20.479,10.188,5.789,24.015,6.85,35.226,2.7,17.071-6.315,30.187-20.274,39.707-31.728l-.666-.553c-9.451,11.371-22.463,25.225-39.342,31.469-10.981,4.063-24.523,3.025-34.5-2.643A28.54,28.54,0,0,1,21.724,178.36c-2.888-15.608,5.567-30.977,15.135-45.258,1.562-2.333,3.215-4.653,4.966-7.11,9.765-13.7,20.787-29.172,14.058-46.665A22.2,22.2,0,0,0,61.7,70.741a28.823,28.823,0,0,0,1.43-13.254c-.127-1.271-.266-2.565-.406-3.875C60.884,36.383,58.8,16.856,77.29,6c8.152-4.782,18.3-6.291,28.574-4.252l.169-.85A46.535,46.535,0,0,0,96.983,0ZM31.734,86.429c-10.963,0-21.853-3.549-27.176-8.742-2.564-2.5-5.119-6.592-2.733-11.878,2.02-4.476,7.323-6.95,14.931-6.965h.068c13.626,0,32.518,8.078,37.465,18.925q.3.656.564,1.308a25.936,25.936,0,0,1-5.8,3.775A40.281,40.281,0,0,1,31.734,86.429Z" transform="matrix(0.999, -0.035, 0.035, 0.999, 0, 3.996)"/><path class="f" d="M1.538,10.647,0,0,9.081,6.038,4.329,7.074Z" transform="translate(179.93 143.414) rotate(133)"/></g></g><g transform="translate(1)"><path class="g" d="M3.841,40.977Q19.11,22.8,33.141,3.586c-.89.348-1.742.7-2.632,1.084a5.114,5.114,0,0,1,2.206,1.393c-.116-.929-.232-1.858-.348-2.826Q18.956,22.4,5.583,41.518c1.045-.271,2.129-.542,3.174-.852-.774-.464-1.548-.929-2.322-1.432.271,1.045.542,2.129.852,3.174A158.877,158.877,0,0,0,18.433,25.842c1.51-2.593-2.516-4.916-4.025-2.361A163.077,163.077,0,0,1,3.26,40.048a2.344,2.344,0,0,0,.852,3.174c.774.464,1.548.929,2.322,1.432A2.344,2.344,0,0,0,9.608,43.8Q23.02,24.643,36.393,5.522A2.4,2.4,0,0,0,36.044,2.7,9.911,9.911,0,0,0,31.787.1a2.362,2.362,0,0,0-2.632,1.084Q15.511,19.882.589,37.609c-1.935,2.361,1.355,5.69,3.251,3.367Z" transform="matrix(0.574, 0.819, -0.819, 0.574, 156.964, 45.213)"/><path class="e" d="M.264,2.613C2.393,3.89,4.521,1.1,6.728,1.142a5.175,5.175,0,0,1,4.18,2.206c.7,1.006,1.045,1.974,2.168,2.555.658.348,1.239-.658.581-1.006-1.316-.7-1.7-2.4-2.826-3.367A6.4,6.4,0,0,0,8.121.174,6.628,6.628,0,0,0,5.1.174C3.863.484,2.044,2.3.883,1.606A.592.592,0,0,0,.264,2.613Z" transform="matrix(0.574, 0.819, -0.819, 0.574, 120.65, 63.006)"/><g transform="matrix(0.574, 0.819, -0.819, 0.574, 163.664, 29.381)"><path class="e" d="M1.944.421C1.286,5.259.628,10.1.008,14.935c-.116.735,1.006,1.045,1.122.31C1.789,10.407,2.447,5.568,3.066.73,3.182-.005,2.06-.315,1.944.421Z" transform="translate(0 55.512)"/><path class="e" d="M.845,10.979l13.7-9.87c.619-.426.039-1.432-.581-1.006L.265,9.973c-.619.426-.039,1.432.581,1.006Z" transform="translate(0.905 60.127)"/><path class="e" d="M1.109,47.332Q18.295,24.282,34.9.845c.426-.619-.581-1.2-1.006-.581Q17.288,23.721.1,46.751c-.426.581.581,1.161,1.006.581Z" transform="translate(1.571 9.26)"/><path class="e" d="M1.126,43.345q15.792-20.9,30.655-42.5c.426-.619-.581-1.2-1.006-.581Q15.912,21.8.12,42.764c-.464.581.542,1.161,1.006.581Z" transform="translate(15.758 16.149)"/><path class="e" d="M1.079,10.105C2.9,6.7,5.027,2.557,9.052,1.435a6.315,6.315,0,0,1,7.973,6.038.581.581,0,0,0,1.161,0A7.558,7.558,0,0,0,10.678,0C5.3.158,2.278,5.305.072,9.524c-.348.658.658,1.239,1.006.581Z" transform="translate(35.042 0)"/><path class="e" d="M1.093,10A82.778,82.778,0,0,0,6.435.87C6.783.212,5.777-.369,5.429.289A82.778,82.778,0,0,1,.087,9.424C-.3,10,.706,10.624,1.093,10Z" transform="translate(46.678 6.874)"/><path class="e" d="M.845,2.7A8.3,8.3,0,0,1,13.27,6.187c.31.7,1.316.077,1.006-.581A9.421,9.421,0,0,0,.265,1.7C-.355,2.123.226,3.129.845,2.7Z" transform="translate(34.424 9.299)"/><path class="e" d="M.845,2.321A7.92,7.92,0,0,1,12.186,5.8c.271.7,1.393.387,1.122-.31A9.136,9.136,0,0,0,.265,1.315c-.619.426-.039,1.432.581,1.006Z" transform="translate(32.373 13.164)"/><path class="e" d="M1.109,31.747Q12.837,16.3,24.6.821C25.068.24,24.062-.34,23.6.24Q11.87,15.684.1,31.167c-.426.581.581,1.161,1.006.581Z" transform="translate(7.221 23.296)"/><path class="e" d="M1.093,32.055Q12.009,16.031,24.24,1.013C24.7.432,23.891-.381,23.427.2,15.221,10.3,7.4,20.714.087,31.474c-.387.619.619,1.2,1.006.581Z" transform="translate(19.507 15.247)"/><path class="e" d="M1.182,1.207A5.8,5.8,0,0,1,.137,3.414c.31.194.658.387.968.581A4.7,4.7,0,0,1,2.46,1.788l-.929-.116a.867.867,0,0,1-.348,1.122c.271.116.581.232.852.348a1.555,1.555,0,0,1,.31-1.471,4.265,4.265,0,0,1-.7.077.408.408,0,0,1-.039.735,4.265,4.265,0,0,0,.7.077,1.892,1.892,0,0,1-.542-.7c-.039-.116-.077-.232-.116-.387,0-.077-.077-.89-.194-.658-.348.658.658,1.239,1.006.581A.988.988,0,0,0,.834.317c-.813.89-.077,2.361.7,3.019a.533.533,0,0,0,.7.077A1.582,1.582,0,0,0,2.266.666a.583.583,0,0,0-.7.077A2.877,2.877,0,0,0,.95,3.336a.589.589,0,0,0,.852.348A2.062,2.062,0,0,0,2.576.975.605.605,0,0,0,1.647.859,5.45,5.45,0,0,0,.021,3.569c-.155.5.581,1.045.968.581A7.757,7.757,0,0,0,2.343,1.44C2.5.782,1.376.472,1.182,1.207Z" transform="translate(0.684 66.066)"/></g></g><g transform="translate(150.402 122.639)"><path class="h" d="M8.96,22.209C4.819,19.19,3.232,13,5.825,8.469,7.1,6.224,9.425,4.4,12.134,4.714c2.787.31,4.142,2.322,4.335,4.954a42.706,42.706,0,0,1-.077,4.451,20.625,20.625,0,0,1-.31,4.374c-.387,1.355-1.78,2.09-2.322,3.445-.464,1.161.039,2.168-1.316,2.555-.387.116-.929.077-1.277.194-.619-.077-.619.039,0,.31-.155-.5-.271-.968-.426-1.471-.5-1.7-1.006-3.445-1.51-5.148C8.38,15.513,6.6,11.294,8.844,8.624c-.929.116-1.858.232-2.826.348,1.355,1.006.852,5.109.929,6.5L7.3,24.183c.116,3.058,4.335,2.942,4.645,0,.31-3.058-.116-6.077-.232-9.173a19.63,19.63,0,0,1,.116-3.987,10.365,10.365,0,0,1,.426-1.9,6.921,6.921,0,0,1,.5-1.239c.426-.658.426-.735.039-.232-.581.077-1.2.155-1.78.232a11.788,11.788,0,0,0,.5,1.7,14.288,14.288,0,0,1,.31,1.78,34.74,34.74,0,0,1,.077,4.916c-.039.735-.116,1.471-.232,2.245l-.232,1.393c-.387.929.271,1.161,1.974.581.155-.31-.271-1.548-.31-1.9a17.663,17.663,0,0,1-.077-2.477,20.952,20.952,0,0,1,.619-4.645c.116-.464.232-.89.387-1.355.581-1.006-.039-1.355-1.858-1.006-.155.271.464,1.742.542,2.013a16.36,16.36,0,0,1,.271,4.954c-.077.774-.155,3.29-1.045,3.484-2.9.7-1.664,5.187,1.239,4.49,3.058-.735,3.909-3.832,4.3-6.58A20.343,20.343,0,0,0,16.508,7.5c-1.2-2.942-4.722-2.98-6.27-.271s-1.9,6.541-1.858,9.6c.039,2.477.077,6.735,3.058,7.625,3.29.968,4.451-2.593,4.8-5.071a32.2,32.2,0,0,0,.039-9.831c-.387-2.4-1.935-7.006-5.225-6.116C7.877,4.25,7.257,9.785,7.1,12.417c-.194,3.948.658,7.857.271,11.805h4.645c-.155-3.909-.31-7.819-.5-11.728-.116-2.98-.581-5.612-3.1-7.47a2.348,2.348,0,0,0-2.826.348C3.038,8.391,2.845,12.107,3.735,15.823c.464,2.013,1.122,4.025,1.7,6,.542,1.858.852,4.1,1.858,5.729,1.587,2.632,6,2.013,8.283.658A4.939,4.939,0,0,0,17.9,25a3.607,3.607,0,0,1,.658-1.9,9.652,9.652,0,0,0,1.626-2.322,12.735,12.735,0,0,0,.774-4.645c.077-1.935.271-3.909.232-5.883-.077-3.445-1.2-6.7-4.18-8.67C11.283-2.214,4.083,1.308,1.374,7.037-1.8,13.81.755,21.822,6.677,26.158c2.361,1.819,4.683-2.206,2.284-3.948Z" transform="translate(15.033 3.344)"/><path class="h" d="M.324,4.6A3.02,3.02,0,0,0,3.885,5.873a4.332,4.332,0,0,0,1.626-.968A3.649,3.649,0,0,0,5.9,4.518c.116-.116.077-.116-.077.039.735-.387.155-.5-1.7-.426a2.4,2.4,0,0,0,3.29,0,2.36,2.36,0,0,0,0-3.29A3.2,3.2,0,0,0,3.537.493a3.976,3.976,0,0,0-1.161.968c-.271.348.348-.232-.077.077a.55.55,0,0,1,.232-.077q-1.219.29,1.742.813A2.344,2.344,0,0,0,1.1,1.422,2.393,2.393,0,0,0,.324,4.6Z" transform="translate(23.437 31.216)"/><path class="h" d="M0,2.322v.348A2.318,2.318,0,0,0,.7,4.3a2.494,2.494,0,0,0,1.626.7,2.249,2.249,0,0,0,1.626-.7,2.39,2.39,0,0,0,.7-1.626V2.322A2.318,2.318,0,0,0,3.948.7,2.494,2.494,0,0,0,2.322,0,2.249,2.249,0,0,0,.7.7,2.249,2.249,0,0,0,0,2.322Z" transform="translate(24.845 36.547)"/><path class="e" d="M8.886,29.231a13.818,13.818,0,0,1-7.7-13.2c.31-5.612,4.1-10.722,8.941-13.392C13.144.976,16.356.473,19.414,2.253A14,14,0,0,1,25.3,9.53a17.927,17.927,0,0,1-1.9,16.179c-.426.619.581,1.2,1.006.581C29.671,18.432,28.472,4.769,18.834.7,14-1.346,8.847,1.4,5.364,4.808A17.128,17.128,0,0,0,.022,17.7a14.875,14.875,0,0,0,8.244,12.58c.7.271,1.277-.735.619-1.045Z" transform="translate(9.456 0)"/><path class="e" d="M.615,4.009a2.331,2.331,0,0,0,.5,3.561c2.013,1.316,5.5.116,7.625-.387,2.284-.542,5.729-1.045,7.277-3.058A2.891,2.891,0,0,0,15.749.139c-.581-.464-1.393.348-.813.813C16.717,2.461,14.395,4.2,13,4.745c-1.161.426-2.361.774-3.561,1.084C8.318,6.1,7.2,6.37,6.073,6.564a21.033,21.033,0,0,1-2.168.348C2.9,6.951,0,6.409,1.467,4.861c.5-.581-.31-1.393-.852-.852Z" transform="translate(17.185 26.615)"/><path class="e" d="M0,1.632A4.369,4.369,0,0,0,4.336,5.541c3.1.194,5.419-2.4,7.238-4.529.464-.581-.348-1.393-.813-.813C9.484,1.709,8.052,3.451,6.155,4.109c-1.935.7-4.8-.077-4.954-2.477C1.123.9-.038.9,0,1.632Z" transform="translate(20.044 33.134)"/><path class="e" d="M.057.421A2.946,2.946,0,0,0,2.38,3.943,2.92,2.92,0,0,0,5.592,1.079a.581.581,0,0,0-1.161,0,1.722,1.722,0,0,1-1.974,1.7A1.773,1.773,0,0,1,1.18.73C1.335-.005.212-.315.057.421Z" transform="translate(23.123 38.681)"/><path class="e" d="M.289,1.093A20.009,20.009,0,0,1,7.8,9.8c.31.7,1.316.077,1.006-.581A20.878,20.878,0,0,0,.87.087.581.581,0,0,0,.289,1.093Z" transform="translate(14.956 13.507)"/><path class="e" d="M0,.73C.739,6.3,1.513,11.878,2.249,17.413c.116.735,1.2.426,1.122-.31C2.636,11.529,1.862,5.955,1.126.421,1.01-.315-.073-.005,0,.73Z" transform="translate(21.202 11.045)"/><path class="e" d="M1.145,9.517A13.782,13.782,0,0,1,7.764,1.079C8.422.73,7.841-.276,7.183.072A15.008,15.008,0,0,0,.022,9.207a.582.582,0,0,0,1.122.31Z" transform="translate(22.074 11.741)"/></g><g transform="translate(100.985 175.569)"><path class="i" d="M141.084,58.717,0,34.565Q42.848,17.263,85.7,0q67,14.921,133.962,29.843Q180.41,44.3,141.084,58.717Z" transform="translate(20.708 124.886)"/><path class="e" d="M.057,1.017c.155.464.271.968.426,1.432a.574.574,0,0,0,1.122-.155V1.171a.581.581,0,0,0-1.161,0A3.086,3.086,0,0,1,.173,2.487H1.3A2.845,2.845,0,0,1,1.218.978a9.724,9.724,0,0,0-1.045.155.2.2,0,0,1,.039.31A9.724,9.724,0,0,1,1.257,1.6.829.829,0,0,1,1.373.862C1.024.746.637.668.289.552c-.077.619-.155,1.2-.232,1.819-.039.31.31.581.581.581a.6.6,0,0,0,.581-.581c.077-.619.155-1.2.232-1.819C1.528-.029.637-.183.366.242A2.088,2.088,0,0,0,.134,1.907a.583.583,0,0,0,1.045.155A1.219,1.219,0,0,0,1.141.591C.87.242.173.2.1.746A4.41,4.41,0,0,0,.173,2.874a.591.591,0,0,0,1.122,0,4.836,4.836,0,0,0,.31-1.626H.444V2.371c.387-.039.774-.116,1.122-.155C1.412,1.752,1.3,1.249,1.141.784a.556.556,0,1,0-1.084.232Z" transform="translate(159.8 183.167)"/><path class="e" d="M.883,29.951c6.232-3.213,13.044-4.916,19.74-6.812A83.533,83.533,0,0,0,30.3,19.888c3.019-1.239,5.922-2.787,8.9-4.18,6.619-3.1,13.779-5.109,20.708-7.393,7.2-2.4,14.36-4.8,21.559-7.161.7-.232.387-1.355-.31-1.122-7.2,2.4-14.36,4.8-21.559,7.161C52.788,9.437,45.782,11.45,39.241,14.43c-3.406,1.548-6.735,3.367-10.218,4.722-3.174,1.239-6.425,2.206-9.715,3.135C12.843,24.145,6.3,25.849.264,28.945c-.619.348-.039,1.355.619,1.006Z" transform="translate(159.864 157.019)"/><path class="e" d="M2.118,31.611Q42.237,17.735,82.2,3.472c2.09-.735,1.2-4.1-.929-3.367Q41.327,14.387,1.189,28.244c-2.09.735-1.2,4.1.929,3.367Z" transform="translate(159.171 155.127)"/><path class="j" d="M.552,1.162c5.032.5,9.328,3.561,14.283,4.529.735.155,1.045-.968.31-1.122C10.112,3.562,5.738.5.552,0c-.735-.039-.735,1.122,0,1.161Z" transform="translate(157.718 148.186)"/><path class="j" d="M.87,6.932A44.866,44.866,0,0,0,9.385.971c.542-.5-.271-1.316-.813-.813A43.5,43.5,0,0,1,.289,5.926.581.581,0,0,0,.87,6.932Z" transform="translate(172.031 146.403)"/><path class="j" d="M.845,6.048C3.284,4.306,5.8,2.642,8.393,1.093,9.051.706,8.432-.3,7.812.087,5.219,1.635,2.7,3.261.265,5.041c-.619.464-.039,1.471.581,1.006Z" transform="translate(158.624 141.094)"/><path class="j" d="M.393,1.154c4.413,1.664,8.825,3.29,13.276,4.954.7.271,1.006-.852.31-1.122C9.566,3.321,5.154,1.7.7.031.006-.2-.3.922.393,1.154Z" transform="translate(166.818 141.227)"/><path class="j" d="M.421,1.154Q17.9,6.553,34.83,13.579c.7.271,1.006-.852.31-1.122Q18.245,5.431.73.031a.582.582,0,0,0-.31,1.122Z" transform="translate(154.366 152.606)"/><path class="j" d="M.289,1.065c7.238,3.484,14.554,6.774,21.946,9.986.7.31,1.277-.7.581-1.006Q11.727,5.284.87.058C.212-.251-.369.755.289,1.065Z" transform="translate(155.619 161.714)"/><path class="j" d="M.289,1.079c3.948,2.013,7.9,4.064,11.844,6.077.658.348,1.239-.658.581-1.006C8.766,4.136,4.818,2.085.87.072.212-.276-.369.73.289,1.079Z" transform="translate(156.664 171.648)"/><path class="j" d="M1.013,13.96A178.274,178.274,0,0,1,18.159,1.109C18.779.683,18.2-.323,17.579.1A183.331,183.331,0,0,0,.2,13.147c-.581.5.232,1.316.813.813Z" transform="translate(158.186 159.115)"/><path class="j" d="M.821,7.651c3.1-2.168,6.193-4.335,9.289-6.541C10.73.683,10.149-.323,9.53.1,6.433,2.27,3.337,4.438.24,6.644c-.581.426,0,1.432.581,1.006Z" transform="translate(156.945 157.489)"/><path class="k" d="M159.7,128.5,13.741,103.655Q6.89,51.808,0,0,78.554,10.567,157.07,21.172,158.405,74.819,159.7,128.5Z" transform="translate(0 57.769)"/><path class="l" d="M8.078,22.4c-4.219-1.316-6.5-4.877-6.851-9.173-.348-4.374.5-8.593,4.567-10.876A10.12,10.12,0,0,1,16.9,3.361c3.213,2.438,6.077,7.432,3.484,11.264-.426.619.581,1.2,1.006.581,2.787-4.1.155-9.522-3.251-12.347A11.446,11.446,0,0,0,5.717,1.116C.918,3.477-.321,8.277.066,13.27c.387,4.838,2.942,8.825,7.7,10.3.7.194,1.006-.929.31-1.161Z" transform="translate(64.922 104.068)"/><path class="l" d="M2.19,11.381a6.914,6.914,0,0,1,1.664-9.1,6.906,6.906,0,0,1,9.135,1.432c.464.581,1.277-.232.813-.813A8.122,8.122,0,0,0,3.119,1.356,8.062,8.062,0,0,0,1.184,11.962c.387.619,1.393.039,1.006-.581Z" transform="translate(71.893 115.517)"/><path class="l" d="M2.309,8.573A4.594,4.594,0,0,1,3.2,1.645C5.6.252,8.85,1.839,9.624,4.393c.232.7,1.355.426,1.122-.31C9.74.832,5.676-1.1,2.618.677A5.8,5.8,0,0,0,1.5,9.425c.5.5,1.316-.31.813-.852Z" transform="translate(75.762 119.95)"/><path class="l" d="M1.824,5.677A3.137,3.137,0,0,0,5.656,3.9,2.8,2.8,0,0,0,4.108.3,2.826,2.826,0,0,0,.392,1.342a3.189,3.189,0,0,0,.7,3.948c.581.464,1.393-.348.813-.813C.353,3.278,1.437.452,3.488,1.3A1.7,1.7,0,0,1,4.572,3.549,1.967,1.967,0,0,1,2.134,4.594c-.7-.271-1.006.852-.31,1.084Z" transform="translate(79.227 125.556)"/><path class="m" d="M0,0,3.406,106.636" transform="translate(157.07 78.903)"/><path class="m" d="M0,0,3.135,105.2" transform="translate(157.302 78.825)"/><path class="n" d="M50.2,0c2.516,1.316,24.114,13.083,25.624,33.984.852,11.534-4.8,20.282-8.361,25.624C48.267,88.482,10.3,93.592,0,94.675c14.979,9.947,67.31,42.732,124.518,40.8,12.734-.426,32.475-1.316,53.879-13.083a107.177,107.177,0,0,0,32.436-27.714c-3.677-2.284-7.315-4.529-10.993-6.812q-40.525,13.876-81.09,27.714-2.09-53.647-4.18-107.255Q82.347,4.258,50.2,0Z" transform="translate(40.1 71.703)"/><path class="o" d="M0,31.778A165.268,165.268,0,0,0,22.875,44.435c12.541,5.729,49.66,22.682,89.876,13.276,29.223-6.851,51.828-25.624,50.357-28.72-.929-1.935-12.27.077-62.781,20.166Q99.107,24.6,97.927,0C96.533,13.779,95.1,27.559,93.708,41.3Q46.854,36.6,0,31.778Z" transform="translate(59.53 137.117)"/><g transform="translate(143.688 45.03) rotate(-17)"><path class="p" d="M0,44.466C3.959,30.052,12.6,16.686,25.068,8.145c7.918-5.424,17.47-8.884,27-8.01s18.869,6.615,22.6,15.513c4.214,10.051.387,22.439-7.743,29.634-4.57,4.044-11.073,6.7-16.754,4.519-4.082-1.564-7.036-5.44-8.2-9.691C38.836,28.63,49.463,16.2,61.255,16.048S83.48,26.242,85.376,38s-3.7,23.934-12.6,31.75c-5.761,5.061-13.161,8.611-20.792,8.338-3.3-.118-6.912-1.191-8.6-4.058-2.03-3.452-.432-7.914,1.74-11.277,8.2-12.7,23.278-19.034,37.955-22.211,14.345-3.1,31.978-2.631,40.358,9.53,6.519,9.458,3.967,46.67-14.077,40.708a15.2,15.2,0,0,1-7.388-6.075C95.254,74.979,95.935,61.685,100,50.559a65.2,65.2,0,0,1,40.712-39.218" transform="translate(0 6.527)"/><path class="f" d="M10.823,14.55,0,16.321,20.124,0,14.955,24.192Z" transform="matrix(0.951, 0.309, -0.309, 0.951, 134.877, 0)"/></g></g><g transform="translate(167.927 282.141)"><path class="j" d="M3,18.2A11.066,11.066,0,0,1,.639,6.972C2.071,3.14,5.864-.15,10.393.005a9.913,9.913,0,0,1,8.361,5.574,8.674,8.674,0,0,1,.658,3.871,6.523,6.523,0,0,1-.735,2.361A8.011,8.011,0,0,0,10.857,9.14,8.145,8.145,0,0,0,5.71,13.2a7.725,7.725,0,0,0,0,6.619C4.781,19.242,3.89,18.7,3,18.2Z" transform="translate(0 0)"/></g></g><g transform="translate(549.775 345.461) rotate(16)"><g transform="translate(0 0)"><g transform="translate(0 85.029)"><rect class="q" transform="translate(0 0)"/></g><g transform="matrix(0.996, 0.087, -0.087, 0.996, 32.622, 0)"><g transform="translate(0 71.692) rotate(-19)"><path class="r" d="M2.4.552C1.2,14.912.082,29.5,3.024,43.748c.155.735-.968,1.045-1.122.31C-1.079,29.7.043,15.028,1.243.552c.077-.735,1.239-.735,1.161,0Z" transform="translate(81.538 2.95)"/><path class="r" d="M40.29,3.89c-7.122.31-14.283.31-21.4-.039-6.154-.31-12.85-.31-18.579-2.787C-.39.755.229-.251.887.058,6.848,2.652,14.009,2.5,20.4,2.768c6.619.271,13.276.271,19.895-.039.735-.039.735,1.122,0,1.161Z" transform="translate(42.995 0)"/><path class="r" d="M4.764.73A110.464,110.464,0,0,0,2.21,44.2c.116.735-1.006,1.045-1.122.31A112.852,112.852,0,0,1,3.642.421C3.8-.315,4.919-.005,4.764.73Z" transform="translate(39.505 0.179)"/><path class="r" d="M43.551,3.158A81.645,81.645,0,0,1,20.172,4.474c-3.948-.271-7.935-.735-11.883-1.2C5.464,2.926,2.522,2.771.2.952-.381.487.432-.326,1.013.139c2.632,2.051,6.735,1.935,9.87,2.284,3.561.426,7.161.774,10.76,1.006A77.44,77.44,0,0,0,43.2,2.074c.774-.194,1.084.929.348,1.084Z" transform="translate(40.702 44.122)"/><path class="r" d="M6.73,1.554a22.226,22.226,0,0,1-2.748-.348,10.211,10.211,0,0,0-3.251.31A.582.582,0,0,1,.421.393a10.46,10.46,0,0,1,3.1-.387C4.6.045,5.646.432,6.73.393c.735-.039.735,1.122,0,1.161Z" transform="translate(74.426 42.319)"/><path class="r" d="M6.28,1.162C4.383,1.2,2.448,1.2.552,1.24a.581.581,0,0,1,0-1.161C2.448.04,4.383.04,6.28,0c.735-.039.735,1.122,0,1.161Z" transform="translate(74.18 40.001)"/><path class="r" d="M5.622,1.162.552,1.394C-.184,1.433-.184.272.552.233L5.622,0c.735-.039.735,1.122,0,1.161Z" transform="translate(74.45 37.098)"/><path class="r" d="M6.28,1.478a40.289,40.289,0,0,0-5.729-.31.581.581,0,0,1,0-1.161A40.6,40.6,0,0,1,6.28.317c.735.116.735,1.277,0,1.161Z" transform="translate(73.25 29.428)"/><path class="r" d="M6.009,1.161.552,1.277a.581.581,0,0,1,0-1.161L6.009,0a.581.581,0,0,1,0,1.161Z" transform="translate(73.134 26.687)"/><path class="r" d="M5.467,1.242A29.723,29.723,0,0,1,.552,1.165C-.184,1.087-.184-.074.552,0A26.08,26.08,0,0,0,5.467.081C6.2,0,6.2,1.165,5.467,1.242Z" transform="translate(74.063 23.974)"/><path class="r" d="M6.667,1.708A29.236,29.236,0,0,0,.552,1.166.581.581,0,0,1,.552,0,29.854,29.854,0,0,1,6.977.585c.7.155.387,1.277-.31,1.122Z" transform="translate(72.592 16.076)"/><path class="r" d="M7.093,1.24c-2.168.039-4.335.039-6.541-.077C-.184,1.123-.184-.038.552,0,2.719.117,4.887.156,7.093.078c.774-.039.774,1.122,0,1.161Z" transform="translate(72.282 13.721)"/><path class="r" d="M7.751,1.436a55.971,55.971,0,0,1-7.2-.271C-.184,1.087-.184-.074.552,0a55.971,55.971,0,0,0,7.2.271.581.581,0,0,1,0,1.161Z" transform="translate(72.438 10.504)"/><path class="r" d="M18.627,2.409A113.217,113.217,0,0,0,.552,1.17a.581.581,0,0,1,0-1.161A112.364,112.364,0,0,1,18.937,1.286c.735.116.426,1.239-.31,1.122Z" transform="translate(48.632 8.449)"/><path class="r" d="M18.511,2.168c-5.961-.5-11.96-.813-17.96-1.006C-.184,1.123-.184-.038.552,0c6,.155,12,.5,17.96,1.006.774.077.774,1.239,0,1.161Z" transform="translate(47.55 10.856)"/><path class="r" d="M19.169,1.4c-6.193-.31-12.425.426-18.618-.232C-.184,1.087-.184-.074.552,0,6.745.7,12.976-.074,19.169.236c.735.039.735,1.2,0,1.161Z" transform="translate(47.356 14.22)"/><path class="r" d="M8.68,1.2C5.97,1.2,3.261,1.161.552,1.161A.581.581,0,0,1,.552,0C3.261,0,5.97.039,8.68.039a.581.581,0,0,1,0,1.161Z" transform="translate(61.522 24.018)"/><path class="r" d="M18.456,1.554c-2.9-.077-5.845-.155-8.748-.194-.813,0-8.554-.426-8.554-.348C.922,1.709-.2,1.438.031.7.264-.11.96.006,1.7.006c1.78,0,3.561.077,5.341.116C10.83.2,14.662.315,18.456.393a.581.581,0,0,1,0,1.161Z" transform="translate(51.475 26.605)"/><path class="r" d="M7.48,1.162c-2.322.116-4.606.116-6.928.077C-.184,1.2-.184.04.552.078,2.874.156,5.158.117,7.48,0c.774-.039.774,1.122,0,1.161Z" transform="translate(62.451 29.9)"/><path class="r" d="M23.853,1.774Q12.241,1.02.552,1.194a.581.581,0,0,1,0-1.161c7.78-.116,15.521.077,23.3.581.735.039.735,1.2,0,1.161Z" transform="translate(47.433 35.945)"/><path class="r" d="M6.4,1.277.552,1.161A.581.581,0,0,1,.552,0L6.4.116a.581.581,0,0,1,0,1.161Z" transform="translate(63.689 38.997)"/><path class="r" d="M10,1.936c-3.135-.31-6.309-.581-9.444-.774C-.184,1.123-.184-.038.552,0,3.725.194,6.861.465,10,.775c.735.077.774,1.239,0,1.161Z" transform="translate(49.561 38.298)"/><path class="r" d="M19.595,1.665c-6.348-.077-12.7-.271-19.043-.5C-.184,1.123-.184-.038.552,0,6.9.272,13.247.427,19.595.5a.581.581,0,0,1,0,1.161Z" transform="translate(51.033 42.325)"/><path class="r" d="M39.547,3.837A160.224,160.224,0,0,0,9.124,1.166,6.617,6.617,0,0,0,9.666.74,185.879,185.879,0,0,0,1.19,59.573a.581.581,0,0,1-1.161,0A186.874,186.874,0,0,1,8.544.43.621.621,0,0,1,9.086,0,160.614,160.614,0,0,1,39.818,2.714c.774.116.464,1.239-.271,1.122Z" transform="translate(0 17.432)"/><path class="r" d="M1.324.566A79.2,79.2,0,0,0,5.814,32.5c.232.7-.852,1.006-1.122.31A80.82,80.82,0,0,1,.163.566c.039-.735,1.2-.774,1.161,0Z" transform="translate(58.891 47.565)"/><path class="r" d="M64.346,4.512C54.592,8.654,43.909,8.228,33.575,7.26A175.112,175.112,0,0,1,.4,1.145.583.583,0,0,1,.713.022a171.15,171.15,0,0,0,32.2,6c10.3,1.006,21.095,1.626,30.849-2.516.658-.31,1.239.7.581,1.006Z" transform="translate(0.166 76.403)"/><path class="h" d="M.883.072A65.817,65.817,0,0,1,6.96,3.827c.387.271.387.968-.155,1.045-1.78.387-3.561.735-5.341,1.122-.735.155-1.045-.968-.31-1.122,1.78-.387,3.561-.735,5.341-1.122a9.724,9.724,0,0,1-.155,1.045A61.025,61.025,0,0,0,.264,1.04C-.356.73.225-.276.883.072Z" transform="translate(50.004 51.272)"/><path class="h" d="M1.093.265C3.648,4.406,6.2,8.548,8.757,12.651c.387.619-.619,1.239-1.006.581C5.2,9.09,2.642,4.948.087.845-.3.226.706-.355,1.093.265Z" transform="translate(40.776 47.517)"/><path class="h" d="M7.31,2.176C5.027,1.828,2.7,1.479.421,1.131-.315,1.015-.005-.108.73.008c2.284.348,4.606.7,6.89,1.045.735.116.426,1.239-.31,1.122Z" transform="translate(32.778 54.393)"/><path class="h" d="M5.528.01h.116A.628.628,0,0,1,6.3.28c.039.039.039.077.077.116a.527.527,0,0,1,0,.581C5.49,2.293,3.4,2.6,1.967,2.912c-.271.077-.542.116-.813.194.039.039.116.077.155.116,0,.271,1.239,1.2,1.471,1.393L5.335,7.054c.542.5-.271,1.355-.813.813C3.477,6.9,2.471,5.893,1.426,4.925.884,4.383-.2,3.687.032,2.8.226,2.061,1.039,1.984,1.7,1.79,2.742,1.519,4.754,1.364,5.412.358V.938C5.374.9,5.374.861,5.335.822c.232.077.426.194.658.271H5.877C5.1,1.248,4.793.126,5.528.01Z" transform="translate(23.026 50.327)"/><path class="r" d="M6.628,1.568A29,29,0,0,0,.552,1.181C-.184,1.219-.184.058.552.019A29.238,29.238,0,0,1,6.938.484c.735.116.426,1.2-.31,1.084Z" transform="translate(29.86 23.611)"/><path class="r" d="M8.8,1.859q-4.122-.406-8.244-.7C-.184,1.123-.184-.038.552,0Q4.674.291,8.8.7c.735.077.735,1.239,0,1.161Z" transform="translate(28.002 26.261)"/><path class="r" d="M5.568.9V.937A6.617,6.617,0,0,1,5.027.512H5.1c-.155.077-.348.194-.5.271,0-.039.039-.039.039-.077a4.265,4.265,0,0,1,.077.7c.271.077.232.116-.155.077H3.9c-.387,0-.774-.039-1.161-.039-.774-.077-1.548-.155-2.322-.31C-.315,1.015-.005-.108.73.008a19.963,19.963,0,0,0,3.019.31C4.369.318,5.1.125,5.568.589a.589.589,0,0,1,.077.7.7.7,0,0,1-.619.348.581.581,0,0,1-.542-.426V1.17A.559.559,0,0,1,5.568.9Z" transform="translate(29.991 31.594)"/><path class="r" d="M10.344,2.142A55.608,55.608,0,0,0,.552,1.175C-.184,1.213-.184.052.552.014a58.8,58.8,0,0,1,10.1,1.006c.735.116.426,1.239-.31,1.122Z" transform="translate(26.029 36.001)"/><path class="r" d="M11.7,2.052A108.112,108.112,0,0,0,.552,1.162C-.184,1.123-.184-.038.552,0A106.414,106.414,0,0,1,11.7.891c.735.077.735,1.239,0,1.161Z" transform="translate(12.056 21.887)"/><path class="r" d="M7.349,2.253C5.027,1.866,2.743,1.518.421,1.131-.315,1.015-.005-.108.73.008,3.053.4,5.336.744,7.659,1.131c.735.116.426,1.239-.31,1.122Z" transform="translate(13.735 26.563)"/><path class="r" d="M6.551,1.432c-1.974-.194-3.987-.271-6-.271A.581.581,0,0,1,.552,0c2.013,0,3.987.077,6,.271.735.077.735,1.239,0,1.161Z" transform="translate(13.759 34.158)"/><path class="r" d="M7.867,1.9C5.429,1.549,3.029,1.317.552,1.162-.184,1.123-.184-.038.552,0,3.106.156,5.622.427,8.177.775c.735.116.426,1.2-.31,1.122Z" transform="translate(8.96 35.898)"/><path class="r" d="M.552,1.161A.581.581,0,0,1,.552,0a.581.581,0,0,1,0,1.161Z" transform="translate(54.633 66.168)"/><path class="r" d="M7.4,1.154a8.116,8.116,0,0,1-2.9.155,33.665,33.665,0,0,0-3.948.155C-.184,1.541-.184.38.552.3A25.085,25.085,0,0,1,3.958.148a9.221,9.221,0,0,0,3.1-.116A.588.588,0,0,1,7.4,1.154Z" transform="translate(49.02 65.13)"/><path class="r" d="M6.938,1.252a27.138,27.138,0,0,0-6.387.155C-.184,1.484-.184.323.552.245A32.04,32.04,0,0,1,6.938.091c.735.077.735,1.239,0,1.161Z" transform="translate(48.091 68.516)"/><path class="r" d="M24.827,1.309a15.392,15.392,0,0,1-5.651.581H12.441c-3.948,0-8.206.426-12.038-.735C-.293.922-.022-.2.713.031c3.716,1.161,7.9.7,11.728.7h6c2.051,0,4.142.194,6.116-.542.7-.271.968.852.271,1.122Z" transform="translate(33.569 73.374)"/><path class="r" d="M8.1,1.427c-1.239-.077-2.477-.116-3.716-.194A7.853,7.853,0,0,0,.7,1.466C.006,1.737-.3.614.393.343A7.388,7.388,0,0,1,3.838.072L8.134.3A.562.562,0,1,1,8.1,1.427Z" transform="translate(30.291 67.76)"/><path class="r" d="M19.208,2.249C12.976,2.016,6.783,1.668.552,1.165-.184,1.087-.184-.074.552,0c6.193.5,12.425.852,18.656,1.084.774.039.774,1.2,0,1.161Z" transform="translate(23.977 77.505)"/></g><path class="r" d="M0,.552C1.745,18.9,1.358,37.322.971,55.708a.581.581,0,0,0,1.161,0C2.558,37.322,2.907,18.9,1.165.552,1.087-.184-.074-.184,0,.552Z" transform="translate(116.586 3.537)"/><path class="r" d="M.581,4.514C8.438,4.863,16.14,2.656,23.92,1.8a113.429,113.429,0,0,1,23.766-.039c.735.077.735-1.084,0-1.161A113.429,113.429,0,0,0,23.92.644C16.14,1.5,8.438,3.7.581,3.353a.581.581,0,0,0,0,1.161Z" transform="translate(116.628 0)"/><path class="r" d="M.022.73A53.435,53.435,0,0,1,1.3,13.116c.116,4.451.271,8.941.426,13.392.31,8.786.7,17.611,1.161,26.4.039.735,1.2.735,1.161,0-.464-9.057-.89-18.115-1.2-27.172-.155-4.451-.271-8.9-.387-13.315a54.278,54.278,0,0,0-1.316-12A.582.582,0,0,0,.022.73Z" transform="translate(163.789 0.726)"/><path class="r" d="M.418,6.368c8.322,2.4,17.263,1.51,25.74.658,8.167-.813,16.257-2.361,23.727-5.961.658-.31.077-1.316-.581-1.006-7.47,3.6-15.637,5.071-23.8,5.883-8.167.774-16.76,1.626-24.733-.7A.588.588,0,1,0,.418,6.368Z" transform="translate(117.681 53.729)"/><path class="r" d="M.73,1.969a68.111,68.111,0,0,1,14.321-.7,69.338,69.338,0,0,1,7.432.852,22.421,22.421,0,0,1,3.213.619c1.432.5,1.355,1.548,1.587,2.9A230.908,230.908,0,0,1,30.8,34.366c.039.735,1.2.735,1.161,0-.348-5.458-.852-10.915-1.548-16.334-.31-2.516-.7-5.032-1.122-7.548L28.6,6.42a16.3,16.3,0,0,0-.735-3.677c-.658-1.51-3.329-1.471-4.722-1.7A66.9,66.9,0,0,0,15.787.15,70.437,70.437,0,0,0,.421.846C-.315.962-.005,2.085.73,1.969Z" transform="translate(165.093 9.9)"/><path class="r" d="M.042.722a19.435,19.435,0,0,1,1.2,5.922c.039,1.006-.116,2.206.619,3.019s2.013.813,3.019.968c1.626.232,3.29.426,4.916.5,7.548.426,15.1-.542,22.566-1.548.735-.077.735-1.277,0-1.161A133.45,133.45,0,0,1,13.125,10.05c-1.471,0-2.942-.077-4.413-.194-.968-.077-1.9-.194-2.864-.31a6.813,6.813,0,0,1-2.555-.426C1.977,8.154,2.4,5.947,2.171,4.515A21.646,21.646,0,0,0,1.126.374C.893-.284-.229-.014.042.722Z" transform="translate(151.228 58.91)"/><path class="r" d="M.015.722a65.6,65.6,0,0,1,1.2,11.38c.194,3.638.387,7.315.542,10.954.31,7.432.5,14.863.581,22.333a.581.581,0,0,0,1.161,0c-.077-7.7-.31-15.366-.619-23.069C2.569,15.121,2.763,7.5,1.137.451.982-.323-.14-.013.015.722Z" transform="translate(181.717 44.163)"/><path class="r" d="M.552,1.454a174.522,174.522,0,0,1,24.23.31c.735.077.735-1.084,0-1.161A168.721,168.721,0,0,0,.552.293c-.735.077-.735,1.239,0,1.161Z" transform="translate(181.954 44.128)"/><path class="r" d="M.087,12.628A5.419,5.419,0,0,0,4.5,15.144c2.787.348,5.612.464,8.4.658,5.961.387,11.922.7,17.882.735,2.9,0,5.845-.039,8.748-.155l4.18-.232c.735-.039,2.013.077,2.671-.464a1.96,1.96,0,0,0,.542-1.393c.155-1.51.116-3.058.155-4.567.116-3.058.194-6.116.31-9.173.039-.735-1.122-.735-1.161,0-.077,2.4-.155,4.838-.232,7.238-.039,1.161-.077,2.284-.116,3.445-.039.619-.039,1.277-.077,1.9-.039,1.084-.155,1.471-1.316,1.78a19.888,19.888,0,0,1-3.406.232c-1.277.077-2.516.116-3.793.155-2.4.077-4.8.077-7.238.077-4.683-.039-9.406-.232-14.089-.542-2.4-.155-4.8-.31-7.238-.5-2.477-.194-6.193.155-7.625-2.284-.387-.658-1.393-.039-1.006.581Z" transform="translate(183.851 77.156)"/><path class="r" d="M.023.7c2.129,7.315,2.593,14.67,2.942,22.256C3.352,30.7,3.7,38.4,4.087,46.143c.039.735,1.2.735,1.161,0q-.581-11.96-1.161-23.959C3.739,14.753,3.2,7.592,1.107.393A.564.564,0,0,0,.023.7Z" transform="translate(204.081 27.732)"/><path class="r" d="M.393,6.874c4.529,1.587,9.328,1.858,14.05,2.284,4.916.464,9.6.968,14.515.155s9.793-1.78,14.67-2.9A28.961,28.961,0,0,0,55.743.952c.581-.464-.232-1.277-.813-.813-3.677,2.98-8.09,4.335-12.657,5.38C37.744,6.564,33.216,7.454,28.648,8.19c-4.8.774-9.406.232-14.205-.232C9.837,7.493,5.115,7.261.7,5.712.006,5.48-.3,6.6.393,6.874Z" transform="translate(208.046 67.931)"/><path class="r" d="M.73,4.574C9.052,2.213,17.761,2.058,26.354,1.633a201.123,201.123,0,0,1,26.011-.077c.735.039.735-1.122,0-1.161A204.979,204.979,0,0,0,25.657.51C17.18.936,8.626,1.168.421,3.49c-.735.155-.426,1.277.31,1.084Z" transform="translate(203.877 23.899)"/><path class="r" d="M0,.552A134.54,134.54,0,0,0,2.4,22.459c.658,3.677,1.432,7.315,2.245,10.954A82.891,82.891,0,0,0,7.316,44.1c.232.7,1.355.387,1.122-.31-2.361-6.657-3.484-13.973-4.761-20.9A135.6,135.6,0,0,1,1.162.552C1.123-.184-.038-.184,0,.552Z" transform="translate(255.66 24.283)"/><path class="s" d="M0,.552c.194,2.09.348,4.18.542,6.27.077.735,1.239.735,1.161,0-.194-2.09-.348-4.18-.542-6.27C1.123-.184-.038-.184,0,.552Z" transform="translate(121.272 9.885)"/><path class="s" d="M.7,1.862a27.737,27.737,0,0,1,3.484-.7c.735-.077.735-1.239,0-1.161A25.252,25.252,0,0,0,.393.739.584.584,0,0,0,.7,1.862Z" transform="translate(121.615 12.484)"/><path class="s" d="M0,.581C0,1.9,0,3.213.039,4.529A10.619,10.619,0,0,0,.232,7.664c.232.7,1.355.426,1.122-.31A12.025,12.025,0,0,1,1.2,4.025c0-1.161,0-2.284-.039-3.445A.581.581,0,0,0,0,.581Z" transform="translate(125.492 8.578)"/><path class="s" d="M.41,1.521c1.51.232,3.019-.735,4.451-.271.7.232,1.006-.89.31-1.122C3.622-.337,2.229.631.719.4.022.283-.326,1.405.41,1.521Z" transform="translate(128.682 8.141)"/><path class="s" d="M.015.73A32.411,32.411,0,0,1,.6,6.846a.581.581,0,0,0,1.161,0A32.568,32.568,0,0,0,1.137.421C.982-.315-.14-.005.015.73Z" transform="translate(131.128 8.777)"/><path class="s" d="M.1.552C-.016,3.261-.016,5.97.023,8.68a.581.581,0,0,0,1.161,0C1.146,5.97,1.146,3.261,1.262.552A.581.581,0,0,0,.1.552Z" transform="translate(136.539 7.64)"/><path class="s" d="M.058,1.464c.89,1.974,2.748,3.174,3.406,5.264.155.426.852.619,1.045.155.929-2.013,1.9-3.987,2.826-6A9.724,9.724,0,0,1,6.29.729c.581,3.058,1.161,6.154,1.7,9.212.155.735,1.239.426,1.122-.31C8.535,6.573,7.955,3.477,7.413.419A.583.583,0,0,0,6.368.264c-.929,2.013-1.9,3.987-2.826,6a9.724,9.724,0,0,1,1.045.155C3.89,4.173,2.032,2.935,1.065.845.755.187-.251.767.058,1.464Z" transform="translate(136.581 6.766)"/><path class="s" d="M.015.73a41.188,41.188,0,0,1,.542,9.754.6.6,0,0,0,.581.581A17.2,17.2,0,0,0,7.059,10.02c.7-.271.387-1.393-.31-1.122A16.345,16.345,0,0,1,1.137,9.9l.581.581A41.678,41.678,0,0,0,1.1.421C.982-.315-.14-.005.015.73Z" transform="translate(148.198 5.758)"/><path class="r" d="M.552,1.9c7.354-.542,14.747-.774,22.14-.735a.581.581,0,0,0,0-1.161C15.3-.035,7.906.2.552.74c-.735.039-.735,1.2,0,1.161Z" transform="translate(121.263 22.431)"/><path class="r" d="M.581,1.417c1.664.039,3.367.116,5.032,0a26.221,26.221,0,0,1,4.606-.194c.735.077.735-1.084,0-1.161A26.221,26.221,0,0,0,5.612.256C3.948.334,2.245.295.581.256c-.774-.039-.774,1.122,0,1.161Z" transform="translate(121.428 27.908)"/><path class="r" d="M.581,1.289c2.787.155,5.535-.426,8.283,0C9.6,1.406,9.909.283,9.173.167,6.309-.259,3.445.283.581.128c-.774-.039-.774,1.122,0,1.161Z" transform="translate(121.389 31.326)"/><path class="r" d="M.552,1.161H8.138A.581.581,0,0,0,8.138,0H.552a.581.581,0,0,0,0,1.161Z" transform="translate(122.076 38.847)"/><path class="r" d="M.581,1.161h5.5A.581.581,0,0,0,6.077,0H.581a.581.581,0,0,0,0,1.161Z" transform="translate(122.55 41.556)"/><path class="r" d="M.581,1.161H8.322A.581.581,0,0,0,8.322,0H.581a.581.581,0,0,0,0,1.161Z" transform="translate(121.428 45.852)"/><path class="r" d="M.552,1.161H16.924a.581.581,0,0,0,0-1.161H.552a.581.581,0,0,0,0,1.161Z" transform="translate(141.429 27.08)"/><path class="r" d="M.552,1.161H11.2A.581.581,0,0,0,11.2,0H.552a.581.581,0,0,0,0,1.161Z" transform="translate(141.816 31.647)"/><path class="r" d="M.581,1.161H3.755A.581.581,0,0,0,3.755,0H.581a.581.581,0,0,0,0,1.161Z" transform="translate(156.379 31.454)"/><path class="r" d="M.552,1.161H13.363a.581.581,0,0,0,0-1.161H.552a.581.581,0,0,0,0,1.161Z" transform="translate(142.939 38.924)"/><path class="r" d="M.581,1.161H11.805a.581.581,0,0,0,0-1.161H.581a.581.581,0,0,0,0,1.161Z" transform="translate(138.342 44.188)"/><path class="r" d="M.552,1.161H9.067A.581.581,0,0,0,9.067,0H.552a.581.581,0,0,0,0,1.161Z" transform="translate(142.939 47.052)"/><path class="r" d="M.581,1.161H8.709A.581.581,0,0,0,8.709,0H.581a.581.581,0,0,0,0,1.161Z" transform="translate(153.67 43.995)"/><path class="r" d="M.552,1.161h7.47A.581.581,0,0,0,8.022,0H.552a.581.581,0,0,0,0,1.161Z" transform="translate(167.13 16.397)"/><path class="r" d="M.393,1.164c1.935.813,4.1.774,5.961,1.742V1.9C5,2.867,3.644,3.835,2.328,4.8c-.619.426-.039,1.432.581,1.006,1.355-.968,2.709-1.935,4.025-2.9a.6.6,0,0,0,0-1.006C4.96.893,2.715.893.7.042.006-.229-.3.893.393,1.164Z" transform="translate(177.043 14.188)"/><path class="r" d="M.418,1.176c.89.232,1.78.464,2.709.619A10.052,10.052,0,0,1,5.6,2.182C5.489,1.95,2.508,4.543,2.2,4.892c-.5.542.31,1.355.813.813a14.764,14.764,0,0,1,3.1-2.477C6.688,2.879,7.346,2.376,7,1.6,6.65.9,5.6,1.021,4.947.9A32.2,32.2,0,0,1,.766.015C-.008-.14-.317.982.418,1.176Z" transform="translate(168.425 21.53)"/><path class="r" d="M.552,1.161h11.96a.581.581,0,0,0,0-1.161H.552a.581.581,0,0,0,0,1.161Z" transform="translate(168.059 31.376)"/><path class="r" d="M.289,1.055a11.861,11.861,0,0,0,2.555.929c.929.271,2.516.5,3.1,1.393V2.8a10.567,10.567,0,0,1-1.7,1.78L2.573,6.241a.589.589,0,0,0,.7.929c.077-.039.194-.116.271-.155A.581.581,0,0,0,2.96,6.009c-.077.039-.194.116-.271.155l.7.929C4.044,6.435,4.741,5.777,5.4,5.08A7.841,7.841,0,0,0,6.947,3.416a.526.526,0,0,0,0-.581C5.747.977,2.689,1.016.87.087.212-.3-.369.707.289,1.055Z" transform="translate(180.436 27.728)"/><path class="r" d="M.552,1.161h8.4A.581.581,0,0,0,8.951,0H.552a.581.581,0,0,0,0,1.161Z" transform="translate(167.981 37.995)"/><path class="r" d="M.581,1.161H9.56A.581.581,0,0,0,9.56,0H.581a.581.581,0,0,0,0,1.161Z" transform="translate(181.151 37.724)"/><path class="r" d="M.581,1.161H9.754A.581.581,0,0,0,9.754,0H.581a.581.581,0,0,0,0,1.161Z" transform="translate(168.998 45.659)"/><path class="r" d="M.581,1.161H14.786a.581.581,0,0,0,0-1.161H.581a.581.581,0,0,0,0,1.161Z" transform="translate(156.379 60.058)"/><path class="r" d="M.552,1.161H13.363a.581.581,0,0,0,0-1.161H.552a.581.581,0,0,0,0,1.161Z" transform="translate(161.711 64.16)"/><path class="r" d="M7.243.548C5.192-1.658,2.56,3.412,2.289,4.922a13.78,13.78,0,0,0,.7,6c.426,1.587.852,2.942.232,4.567A5.911,5.911,0,0,1,.276,18.662a.589.589,0,0,0,.31,1.084c4.683-.464,3.367,8.477,4.567,11.341a5.948,5.948,0,0,0,6.657,3.522c.735-.116.426-1.239-.31-1.122-6.038.968-5.729-5.729-6.27-9.677-.348-2.438-1.7-5.535-4.683-5.225.116.348.194.735.31,1.084A6.693,6.693,0,0,0,4.65,12.9c-.348-2.129-1.239-4.1-1.316-6.27a7,7,0,0,1,.387-2.671C3.837,3.683,5.618.548,6.392,1.4c.542.542,1.355-.31.852-.852Z" transform="translate(192.022 51.072)"/><path class="r" d="M3.063.179C2.1,1.224,2.405,2.462,2.947,3.7,3.412,4.746,4.534,5.985,4.5,7.146c0,2.129-2.477,3.1-4.1,3.716-.7.271-.387,1.393.31,1.122,1.935-.735,4.1-1.664,4.761-3.832a3.416,3.416,0,0,0-.116-2.4C4.883,4.553,2.638,2.269,3.876.992,4.418.45,3.567-.363,3.063.179Z" transform="translate(214.665 75.903)"/><path class="q" d="M10.968.641C4.93-1.836-.8,3.235.092,9.5c.89,6.193,8.167,7.509,11.651,2.555.426-.619-.581-1.2-1.006-.581a5.459,5.459,0,0,1-6.27,2.284c-2.4-.852-3.367-3.251-3.367-5.69A6.778,6.778,0,0,1,10.62,1.764c.735.271,1.045-.852.348-1.122Z" transform="translate(213.186 43.16)"/><path class="q" d="M.552,1.637a50.109,50.109,0,0,1,6.387-.464c.735.039.735-1.122,0-1.161A50.109,50.109,0,0,0,.552.476c-.735.039-.735,1.2,0,1.161Z" transform="translate(231.498 47.583)"/><path class="q" d="M0,.552A69.359,69.359,0,0,1,.352,8.564a.581.581,0,0,0,1.161,0A69.359,69.359,0,0,0,1.165.552C1.087-.184-.074-.184,0,.552Z" transform="translate(234.601 44.024)"/><path class="q" d="M.437,1.126a32.771,32.771,0,0,0,5.845.116c.735-.039.735-1.2,0-1.161A29.343,29.343,0,0,1,.747,0C.011-.074-.337,1.049.437,1.126Z" transform="translate(242.179 45.887)"/><path class="q" d="M0,.552c.116,3.019.194,6.038.31,9.1.039.735,1.2.735,1.161,0-.116-3.019-.194-6.038-.31-9.1C1.123-.184-.038-.184,0,.552Z" transform="translate(245.248 41.972)"/></g></g></g></g></g></svg>